<?xml version="1.0" encoding="UTF-8" standalone="no"?>
<svg
   xmlns:osb="http://www.openswatchbook.org/uri/2009/osb"
   xmlns:dc="http://purl.org/dc/elements/1.1/"
   xmlns:cc="http://creativecommons.org/ns#"
   xmlns:rdf="http://www.w3.org/1999/02/22-rdf-syntax-ns#"
   xmlns:svg="http://www.w3.org/2000/svg"
   xmlns="http://www.w3.org/2000/svg"
   xmlns:sodipodi="http://sodipodi.sourceforge.net/DTD/sodipodi-0.dtd"
   xmlns:inkscape="http://www.inkscape.org/namespaces/inkscape"
   inkscape:version="1.0 (4035a4f, 2020-05-01)"
   sodipodi:docname="welcome-3.svg"
   id="svg8"
   version="1.1"
   viewBox="0 0 135.46666 135.46667"
   height="512"
   width="512">
  <defs
     id="defs2">
    <linearGradient
       osb:paint="solid"
       id="linearGradient837">
      <stop
         id="stop835"
         offset="0"
         style="stop-color:#056676;stop-opacity:1;" />
    </linearGradient>
  </defs>
  <sodipodi:namedview
     inkscape:window-maximized="0"
     inkscape:window-y="0"
     inkscape:window-x="0"
     inkscape:window-height="900"
     inkscape:window-width="1440"
     units="px"
     showgrid="true"
     inkscape:document-rotation="0"
     inkscape:current-layer="layer1"
     inkscape:document-units="mm"
     inkscape:cy="263.54271"
     inkscape:cx="186.10324"
     inkscape:zoom="1.1302041"
     inkscape:pageshadow="2"
     inkscape:pageopacity="0.0"
     borderopacity="1.0"
     bordercolor="#666666"
     pagecolor="#ffffff"
     id="base">
    <inkscape:grid
       id="grid885"
       type="xygrid" />
  </sodipodi:namedview>
  <metadata
     id="metadata5">
    <rdf:RDF>
      <cc:Work
         rdf:about="">
        <dc:format>image/svg+xml</dc:format>
        <dc:type
           rdf:resource="http://purl.org/dc/dcmitype/StillImage" />
        <dc:title></dc:title>
      </cc:Work>
    </rdf:RDF>
  </metadata>
  <g
     id="layer1"
     inkscape:groupmode="layer"
     inkscape:label="Layer 1">
    <path
       sodipodi:nodetypes="ssssssssssssssssssssss"
       transform="scale(0.26458333)"
       d="m 277.04297,22.869141 c -11.08,0 -20,7.64002 -20,17.130859 v 359.99023 c 0,9.49081 8.92,17.13086 20,17.13086 H 460 c 11.08003,0 20,-7.64005 20,-17.13086 V 40 c 0,-9.490839 -8.91997,-17.130859 -20,-17.130859 z m 10.3125,7.11914 H 450 c 5.81847,0 12.95839,0.85559 16.92899,4.09118 4.48532,3.65502 5.4382,10.039982 5.4382,15.920539 v 340 c 0,4.68211 -0.66698,10.83277 -3.65617,14.23446 -4.08861,4.65283 -11.55304,5.77726 -18.71102,5.77726 H 287.35547 c -6.82306,0 -14.7678,-0.85222 -18.86397,-5.13525 -3.34278,-3.49529 -3.50322,-9.8947 -3.50322,-14.87647 V 50 c 0,-5.128395 -0.55631,-12.371679 2.96475,-15.905659 4.09058,-4.10559 12.74327,-4.10606 19.40244,-4.10606 z"
       style="fill:#056676;fill-opacity:1;fill-rule:evenodd;stroke:none;stroke-width:3.82481;stroke-miterlimit:4;stroke-dasharray:none;stroke-opacity:1"
       id="rect833" />
    <path
       sodipodi:nodetypes="ccc"
       id="path923"
       d="m 92.604166,7.9374999 c 6.073989,4.6000541 7.12963,3.6597221 13.229164,0 z"
       style="fill:#056676;stroke:none;stroke-width:0.26458300000000001px;stroke-linecap:butt;stroke-linejoin:miter;stroke-opacity:1;fill-opacity:1" />
    <g
       style="fill:#5eaaa8;fill-opacity:1"
       transform="matrix(0.11560271,0,0,0.11560271,77.562785,36.757686)"
       id="g937">
      <path
         style="fill:#5eaaa8;fill-opacity:1"
         d="m 261.752,242.918 c -2.429,-2.128 -4.723,-4.138 -5.832,-6.133 -0.088,-0.161 -0.184,-0.324 -0.32,-0.549 -4.244,-6.792 -5.837,-23.742 -6.788,-33.866 -0.142,-1.521 -0.279,-2.975 -0.416,-4.336 -0.014,-0.138 -0.03,-0.274 -0.058,-0.482 -2.181,-15.25 -7.596,-37.241 -21.01,-55.398 -9.281,-12.563 -20.811,-21.047 -34.316,-25.263 -1.391,-9.796 -9.832,-17.353 -20.006,-17.353 -10.174,0 -18.617,7.559 -20.006,17.355 -13.504,4.213 -25.035,12.697 -34.316,25.262 -13.414,18.154 -18.83,40.146 -21.01,55.396 l -0.016,0.122 c -0.017,0.131 -0.032,0.259 -0.04,0.353 -0.138,1.369 -0.275,2.82 -0.417,4.34 -0.952,10.129 -2.545,27.082 -6.828,33.934 -0.076,0.125 -0.147,0.25 -0.255,0.438 -1.134,2.041 -3.428,4.053 -5.855,6.182 -5.969,5.23 -18.388,16.116 -8.156,35.115 1.979,3.677 5.804,5.961 9.98,5.961 h 173.839 c 4.173,0 7.996,-2.283 9.979,-5.96 10.23,-18.996 -2.184,-29.883 -8.153,-35.118 z"
         id="path925" />
      <path
         style="fill:#5eaaa8;fill-opacity:1"
         d="m 192.752,302.979 h -40.214 c -1.652,0 -3.205,0.723 -4.262,1.981 -1.982,2.362 -1.427,5.51 -1.096,7.39 l 0.026,0.151 c 2.188,12.541 13.028,21.644 25.776,21.644 12.984,0 24.125,-9.685 25.912,-22.511 l 0.039,-0.21 c 0.221,-1.165 0.737,-3.892 -1.189,-6.219 -0.689,-0.831 -2.253,-2.226 -4.992,-2.226 z"
         id="path927" />
      <path
         style="fill:#5eaaa8;fill-opacity:1"
         d="M 101.631,24.448 C 100.293,16.272 92.585,10.725 84.404,12.069 61.8,15.77 40.925,27.203 25.623,44.26 10.266,61.382 1.415,82.568 0.028,105.529 c -0.5,8.269 5.799,15.378 14.068,15.877 0.308,0.019 0.614,0.028 0.918,0.028 7.871,0 14.478,-6.135 14.958,-14.097 C 30.947,91.205 37.165,76.32 47.954,64.292 58.861,52.133 73.141,44.312 89.25,41.674 c 8.178,-1.339 13.72,-9.051 12.381,-17.226 z"
         id="path929" />
      <path
         style="fill:#5eaaa8;fill-opacity:1"
         d="m 83.133,128.277 c 0.519,-8.591 3.831,-16.518 9.576,-22.924 5.809,-6.475 13.414,-10.64 21.993,-12.045 8.175,-1.339 13.718,-9.051 12.379,-17.227 -1.338,-8.175 -9.045,-13.723 -17.227,-12.379 -15.182,2.485 -29.202,10.163 -39.478,21.619 -10.167,11.334 -16.271,25.946 -17.189,41.146 -0.5,8.269 5.799,15.378 14.068,15.877 0.308,0.019 0.613,0.028 0.918,0.028 7.871,10e-4 14.479,-6.134 14.96,-14.095 z"
         id="path931" />
      <path
         style="fill:#5eaaa8;fill-opacity:1"
         d="M 345.985,105.529 C 344.598,82.568 335.747,61.382 320.389,44.259 305.088,27.202 284.213,15.77 261.609,12.069 c -8.172,-1.346 -15.889,4.203 -17.227,12.379 -1.339,8.175 4.203,15.888 12.379,17.227 16.109,2.639 30.39,10.459 41.296,22.617 10.79,12.029 17.008,26.914 17.982,43.046 0.48,7.962 7.087,14.097 14.959,14.097 0.304,0 0.61,-0.01 0.918,-0.028 8.27,-0.5 14.569,-7.61 14.069,-15.878 z"
         id="path933" />
      <path
         style="fill:#5eaaa8;fill-opacity:1"
         d="M 275.636,85.321 C 265.36,73.866 251.339,66.188 236.157,63.703 c -8.179,-1.344 -15.888,4.203 -17.227,12.379 -1.339,8.176 4.204,15.889 12.379,17.227 8.58,1.405 16.186,5.57 21.994,12.045 5.746,6.406 9.057,14.333 9.575,22.923 0.48,7.962 7.087,14.097 14.959,14.097 0.304,0 0.609,-0.009 0.917,-0.027 8.27,-0.499 14.568,-7.606 14.069,-15.876 -0.915,-15.201 -7.02,-29.814 -17.187,-41.15 z"
         id="path935" />
    </g>
    <g
       style="fill:#5eaaa8;fill-opacity:1"
       transform="matrix(0.11560271,0,0,0.11560271,78.259013,33.766473)"
       id="g939" />
    <g
       style="fill:#5eaaa8;fill-opacity:1"
       transform="matrix(0.11560271,0,0,0.11560271,78.259013,33.766473)"
       id="g941" />
    <g
       style="fill:#5eaaa8;fill-opacity:1"
       transform="matrix(0.11560271,0,0,0.11560271,78.259013,33.766473)"
       id="g943" />
    <g
       style="fill:#5eaaa8;fill-opacity:1"
       transform="matrix(0.11560271,0,0,0.11560271,78.259013,33.766473)"
       id="g945" />
    <g
       style="fill:#5eaaa8;fill-opacity:1"
       transform="matrix(0.11560271,0,0,0.11560271,78.259013,33.766473)"
       id="g947" />
    <g
       style="fill:#5eaaa8;fill-opacity:1"
       transform="matrix(0.11560271,0,0,0.11560271,78.259013,33.766473)"
       id="g949" />
    <g
       style="fill:#5eaaa8;fill-opacity:1"
       transform="matrix(0.11560271,0,0,0.11560271,78.259013,33.766473)"
       id="g951" />
    <g
       style="fill:#5eaaa8;fill-opacity:1"
       transform="matrix(0.11560271,0,0,0.11560271,78.259013,33.766473)"
       id="g953" />
    <g
       style="fill:#5eaaa8;fill-opacity:1"
       transform="matrix(0.11560271,0,0,0.11560271,78.259013,33.766473)"
       id="g955" />
    <g
       style="fill:#5eaaa8;fill-opacity:1"
       transform="matrix(0.11560271,0,0,0.11560271,78.259013,33.766473)"
       id="g957" />
    <g
       style="fill:#5eaaa8;fill-opacity:1"
       transform="matrix(0.11560271,0,0,0.11560271,78.259013,33.766473)"
       id="g959" />
    <g
       style="fill:#5eaaa8;fill-opacity:1"
       transform="matrix(0.11560271,0,0,0.11560271,78.259013,33.766473)"
       id="g961" />
    <g
       style="fill:#5eaaa8;fill-opacity:1"
       transform="matrix(0.11560271,0,0,0.11560271,78.259013,33.766473)"
       id="g963" />
    <g
       style="fill:#5eaaa8;fill-opacity:1"
       transform="matrix(0.11560271,0,0,0.11560271,78.259013,33.766473)"
       id="g965" />
    <g
       style="fill:#5eaaa8;fill-opacity:1"
       transform="matrix(0.11560271,0,0,0.11560271,78.259013,33.766473)"
       id="g967" />
    <g
       transform="matrix(0.10365158,0,0,0.10365158,-15.065856,49.761138)"
       id="react-group-1"
       stroke="none"
       stroke-width="1"
       fill="#FFFFFF00"
       fill-rule="evenodd">
      <g
         id="react-group-2">
        <rect
           id="react-rect-4"
           x="0"
           y="0"
           width="1024"
           height="768"
           style="opacity:0" />
        <path
           d="m 355.41374,420 c 1.42427,9.56903 5.00403,17.97979 8.02536,26.93749 1.4279,4.23577 3.65524,8.55136 5.84166,12.44246 1.41517,2.51969 3.2096,8.50691 5.8062,5.00945 0.4311,1.82583 -0.13552,2.72015 0.46384,4.4072 0.84491,2.38273 5.22957,5.34777 7.13587,7.18266 1.83717,1.76869 3.85806,3.12467 5.83621,4.68746 0.39108,0.30839 1.20325,0.0562 1.51976,0.41451 0.59026,0.67029 0.0391,1.59998 0.28831,1.91381 3.09954,3.89382 8.47737,6.66022 12.50733,9.52186 5.75981,4.08974 11.49142,8.17766 17.10481,12.46422 4.4365,3.38771 8.66836,6.95954 13.06848,10.35088 2.1082,1.62537 3.70254,3.23623 5.2696,5.35412 1.94449,2.62944 2.23825,2.74645 0.88584,5.46296 -2.41925,4.85435 -6.78026,7.98628 -9.69336,12.34359 -3.31965,4.96864 -5.45513,10.52321 -9.9653,14.66828 -2.01725,-4.54778 -4.62295,2.09883 -1.2742,1.39771 -1.55614,4.61399 -5.03313,8.54319 -7.35324,12.88327 -2.74303,5.13008 -5.74162,9.79034 -8.98851,14.61295 -0.33105,-1.19455 -0.6612,-2.38999 -0.99316,-3.58454 -3.15776,0.75464 -0.62937,3.07026 -0.39654,4.02988 0.19736,0.81359 0.88312,0.89795 0.39381,2.66663 -0.36743,1.32878 -1.64254,2.45892 -2.45108,3.56185 -1.81898,2.48251 -3.51246,5.03667 -5.22958,7.58811 -1.69074,2.51153 -2.281,4.58315 -3.37057,7.03663 -0.97225,2.19045 -1.86719,1.77503 -3.43333,3.38771 -1.61981,1.66619 -3.23143,4.56955 -4.67388,6.48789 -4.29371,5.71058 -8.15177,12.25017 -11.08307,18.74713 -2.79395,6.19402 -7.95259,10.54679 -10.3109,17.11631 -1.20599,3.35325 -1.64709,6.87973 -2.6921,10.26834 -0.9777,3.16458 -2.57841,6.10695 -3.18322,9.39125 -0.50295,2.7265 -0.17917,5.88473 -0.42291,8.27562 -0.19918,1.95191 -1.01681,4.9505 -0.77489,7.70421 0.51295,5.80128 2.91947,10.83522 5.79164,15.6678 -13.10486,4.44166 -28.01416,5.68881 -41.76385,5.36682 -7.02674,-0.16508 -15.03481,-0.23129 -21.91057,1.39409 -3.9763,0.94057 -7.03037,2.11063 -11.20675,1.78319 -4.17275,-0.32743 -8.34186,-0.71926 -12.51279,-1.07844 1.21781,-2.45348 5.19411,-5.54459 7.426,-7.42665 1.28875,-1.08752 3.41332,-1.3442 4.39921,-2.39362 1.12959,-1.2018 1.47429,-4.19949 1.87628,-5.64527 3.09318,-11.09826 5.37692,-22.2972 7.31413,-33.64942 3.42242,-20.06049 4.74937,-40.48469 6.01356,-60.66945 0.091,-1.45213 0.80035,-3.20721 0.76398,-4.58587 -0.0573,-2.22764 -0.50113,-3.48023 -0.33197,-5.60083 0.10732,-1.34329 1.71075,-3.13828 1.64163,-4.32375 -0.0618,-1.04398 -1.84717,-0.25034 -1.84445,-1.81585 0.005,-2.25121 3.22233,-5.4938 3.89445,-7.51373 0.2592,-0.78315 -0.69822,-1.83176 -0.79268,-2.70863 l -0.005,-0.15678 c 0.0416,0.0238 0.7496,-3.16288 0.77854,-3.29232 0.23465,-1.01949 1.15414,-1.34057 1.10776,-2.61856 -0.04,-1.10293 -1.65618,-2.54237 -0.78307,-3.68702 0.59662,-0.78185 2.76849,0.47346 3.25871,-0.41632 0.63118,-1.14556 -2.14186,-5.05753 -1.83445,-6.83075 0.50113,-2.88522 2.56113,-5.81216 3.26235,-8.77811 0.31195,-1.32152 -0.0336,-3.3877 0.99225,-4.48066 1.67347,-1.78229 3.12956,0.0435 5.54426,-0.55237 -2.4629,-2.09067 -2.94038,-3.92104 -2.21279,-6.97315 0.56843,-2.38182 1.70166,-5.02759 4.30644,-2.64849 -0.38835,-3.5555 -0.37471,-4.1106 2.2801,-6.80444 1.28784,-1.30701 2.67572,-3.50289 4.21549,-4.38542 0.46566,-0.48979 0.93223,-0.97958 1.3988,-1.46846 0.63119,0.65759 1.38152,1.03037 2.25099,1.11563 7.4451,-0.39546 11.16401,-1.92016 18.00248,2.54418 2.884,1.88387 5.7589,3.29247 8.23818,5.74505 2.76485,2.73465 4.99493,5.95365 7.95714,8.50872 3.31146,2.85801 6.57926,5.20355 9.53329,8.48151 2.44199,2.71017 4.7912,5.77861 8.06355,7.43482 0.25011,-3.92013 -1.89265,-7.42484 -3.7662,-10.84883 -0.22465,-0.40906 -1.85536,-1.51109 -1.81989,-1.38955 -0.19827,-0.68661 0.55297,-1.27889 0.32014,-1.8875 2.8367,2.56414 5.7689,6.37179 9.01761,8.29286 5.30233,3.13465 2.94675,-2.98318 1.93449,-6.12781 -2.884,-8.96768 -8.10903,-17.56166 -14.14987,-24.79965 -10.57012,-12.66105 -28.20243,-26.79691 -45.07623,-18.82786 -16.72373,7.89921 -25.53398,21.16524 -30.33246,38.81125 -5.56882,20.48225 -8.1254,40.05386 -8.65472,61.2708 -0.30377,12.14677 -1.5425,24.19376 -2.81942,36.27341 -1.24692,11.78578 -1.75714,24.55567 -4.13546,36.1283 -1.49248,-2.17322 -2.37287,-3.8122 -3.11774,-6.25298 -0.30286,-0.98774 0.0773,-1.95462 -0.43928,-2.92603 -0.23829,-0.44626 -1.4461,-0.39183 -1.67165,-0.79908 -1.85264,-3.34236 -4.4556,-7.94184 -5.30688,-11.7885 -0.44929,-2.02718 -0.0391,-3.20993 -0.90677,-5.0539 -0.8149,-1.72877 -1.22508,-0.0898 -1.53522,-2.22401 -0.0437,-0.29568 1.3224,-0.78275 0.90131,-2.16504 -1.0632,-3.49111 -1.81353,-0.18231 -2.32375,-0.20408 -1.05229,-0.0445 1.32421,-7.20534 1.13686,-8.33005 -0.21555,-1.29249 -0.81854,-0.58774 -1.11231,-1.53013 -0.26466,-0.85169 -0.58844,-2.08251 -0.78762,-3.26526 -0.60299,-3.60267 -1.96905,-4.77998 -2.03089,-8.67834 -0.0737,-4.70651 -1.81808,-7.73595 -2.59933,-12.23203 -0.14461,-0.8281 0.76034,-1.7587 0.59663,-2.4825 -0.33924,-1.50746 -1.43154,-2.76005 -1.85628,-4.35278 -0.88766,-3.33238 0.88403,-6.2058 0.63756,-9.41574 0.04,0.52517 -0.99681,-2.36278 -1.06138,-2.61765 -0.3738,-1.46755 -0.21373,-3.43396 -0.50931,-5.03122 -0.27831,-1.4993 -1.20144,-3.50018 -0.37472,-4.90152 0.5648,-0.95872 1.83536,-0.69749 2.57478,-1.76687 -2.71666,-0.87527 -2.1464,0.0798 -3.12775,-2.91696 -0.93677,-2.86164 -1.02772,-5.25979 2.07546,-3.36776 -0.78398,-1.93104 -2.24371,-4.30016 -2.56203,-6.36816 -0.29013,-1.88932 0.40472,-3.71786 0.20554,-5.59811 -0.53205,-5.03576 -2.08455,-8.10057 0.77853,-12.98576 -3.77167,-1.92922 -2.13913,-8.64659 -2.72393,-12.30005 -0.63301,-3.96639 -2.17733,-7.75772 0.79944,-10.36176 -3.77439,-2.71108 -1.85536,-11.50551 -1.78533,-15.705 0.0673,-4.01718 -0.24647,-8.08968 -0.19918,-12.75719 0.0282,-2.6376 -0.71486,-4.45164 -1.34423,-7.06022 -0.81217,-3.36231 0.0136,-5.94277 -0.26375,-9.19443 -0.22101,-2.58318 -1.19689,-5.17906 -1.32877,-7.93095 -0.13551,-2.80722 0.0982,-5.9582 -0.2974,-8.71553 -0.32924,-2.28296 -0.87493,-3.9174 -0.93223,-6.38267 -0.0164,-0.73106 -0.37289,-2.04351 -0.22283,-2.72377 -0.005,0.0254 1.01772,-2.35009 1.01045,-1.30157 0.03,-3.90562 -1.9254,-7.72144 -0.9004,-12.48055 0.8431,-3.90743 1.54978,-3.26708 5.49151,-3.0249 3.10955,0.19137 6.2182,0.39636 9.33412,0.40815 4.03632,0.0163 17.01658,-2.78273 19.93787,0.0617 2.41925,2.35643 1.01318,13.5082 1.17779,16.87595 0.26648,5.48292 -4.9831,7.15909 -6.43829,12.7581 -2.77486,10.67559 1.80898,24.7661 14.31631,25.67855 11.66696,0.85169 22.85916,-8.74092 21.25755,-20.53214 -0.64301,-4.7319 -2.82306,-9.88194 -6.93851,-12.65107 -3.98085,-2.67932 -12.4373,-0.6594 -15.20943,-3.88838 -1.2933,-1.50655 -0.78034,-7.36225 -0.93041,-9.32776 -0.21828,-2.85891 -1.52795,-8.57856 0.35652,-9.93274 2.1273,-1.53104 8.69838,-1.56097 11.12672,-1.56732 3.44152,-0.009 6.57381,-0.005 9.98895,-0.58321 7.55787,-1.27981 15.09301,-1.2281 22.5181,-2.90246 7.37143,-1.66165 14.18261,-3.3995 21.12749,-6.36907 z m 90.07513,0 c 1.53536,-0.0381 4.83394,12.67031 5.70354,14.91157 2.37647,6.12715 3.3502,12.30788 4.67283,18.75015 1.35735,6.61481 2.57407,13.33769 4.33284,19.85533 1.32085,4.89664 1.02446,9.6398 2.80192,14.57003 -0.46995,3.05222 -0.0481,8.32573 -3.41963,9.63889 -3.04847,1.18601 -5.02975,-1.71092 -6.16191,-4.22099 -3.05737,-6.78191 -2.07563,-15.83233 -3.18999,-23.1237 -1.31552,-8.60815 -1.39295,-17.08826 -2.42454,-25.70823 C 446.89517,437.07837 443.81733,427.4858 445.48887,420 Z M 312.40351,245.855 c 3.34293,3.7732 8.25227,2.18969 12.65586,1.77135 -1.86841,4.24599 -4.55004,8.78962 -4.6501,13.54379 -0.0509,2.46646 1.27623,4.65615 1.26168,7.00919 -0.0155,2.33307 -1.90843,4.51006 -2.80625,6.67615 -4.03245,9.71886 -5.00758,22.88605 -5.15858,33.3227 -0.3111,21.5902 6.15191,44.58696 19.89752,61.51465 2.90085,3.57175 6.16101,6.87216 9.80594,9.69072 1.98211,1.53179 11.11129,5.16978 11.53882,7.32136 0.82777,4.16522 -8.54064,3.75415 -11.09855,4.12711 -5.37872,0.78404 -10.69649,1.9102 -16.08339,2.63525 -21.58855,2.90296 -42.89965,5.22151 -64.66376,4.04907 -2.40782,-0.12976 -6.91055,1.06989 -9.18648,0.10527 -2.67435,-1.1316 -1.76197,-3.38481 -1.69739,-6.01916 0.16647,-6.76327 -0.80594,-13.41492 -1.37356,-20.13373 -0.45937,-5.43566 0.78502,-4.71061 4.77017,-7.71882 4.12068,-3.11076 8.14948,-8.88672 9.49484,-13.8369 3.83324,3.0908 1.05701,4.75326 1.60279,8.71884 0.66586,4.83765 3.93603,4.04454 6.09279,0.80673 3.34567,-5.02186 3.05003,-12.95938 -0.0773,-17.97852 -2.80079,-4.49372 -12.79412,-11.39493 -18.46392,-9.33954 -7.54367,2.73689 0.66676,11.91762 4.2362,13.90677 -0.88053,2.54087 -5.75349,4.77412 -7.9248,6.16888 -3.01456,1.93652 -6.92602,3.05995 -10.41086,4.13256 -9.29746,2.8603 -18.33294,3.27592 -27.92785,1.8739 -9.22013,-1.34667 -19.77835,-4.34853 -25.72651,-11.90583 -2.57246,-3.26775 -4.93754,-8.24242 -2.46968,-12.33505 2.22317,-3.68881 7.71923,-3.94381 10.42178,-7.51737 1.16707,-1.54177 1.72832,-3.58808 2.80079,-5.08175 1.74469,-2.42745 1.04245,-1.9955 4.32262,-1.71691 5.30958,0.4501 10.9712,0.79221 16.19982,-0.4864 3.92966,-0.9619 7.75652,-2.75866 11.60158,-3.90478 4.08157,-1.2169 7.95119,-3.77502 11.10765,-6.53187 7.27987,-6.36036 14.40692,-13.27246 21.14737,-20.20452 6.70133,-6.89031 10.99303,-15.75888 17.26592,-23.06572 7.10977,-8.27963 13.94573,-18.86329 24.36569,-23.42144 5.98635,-2.61801 5.8772,0.15063 9.12917,3.82402 z m 25.31412,27.52416 c 1.01387,1.06023 0.36835,7.13845 1.33572,9.07798 3.71356,7.45145 10.20978,5.80592 16.9303,4.24 0.57896,5.97148 1.02754,12.69741 3.4373,18.2627 1.07677,2.48503 2.7781,4.61905 3.647,7.21625 0.54979,1.64553 0.32823,3.73432 0.95004,5.26405 0.67196,1.65367 2.37511,2.92829 3.37075,4.55844 1.2026,1.96938 1.83353,3.80759 3.41633,5.53092 3.46374,3.7696 8.16746,6.96476 10.81792,11.46168 1.08772,1.84454 1.27919,3.21235 1.24636,5.36175 -0.0109,0.77075 -0.55343,3.60043 -0.31182,4.17126 0.88349,2.09241 4.06094,2.63247 4.41197,5.33551 0.19876,1.51888 -0.6282,1.33705 -0.90993,2.60263 -0.33735,1.52249 -0.0957,2.56734 -0.65281,4.26353 -0.8844,2.69218 -4.7867,7.75812 -4.38188,10.07669 -5.74129,3.16078 -15.83802,5.16363 -22.27042,3.72075 -6.57737,-1.47546 -13.15292,-8.94319 -17.39712,-13.83544 -9.96452,-11.48429 -15.76599,-29.62397 -16.31031,-44.64718 -0.27626,-7.62333 0.73943,-15.28285 1.09866,-22.89351 0.20241,-4.28796 -0.71299,-16.3666 2.92034,-19.36997 0.81237,-0.67124 7.93953,-1.14346 8.6516,-0.39804 z m -53.61219,14.38035 c -8.86265,0.50818 -16.46999,14.38409 -14.8299,22.48949 1.34718,6.65256 3.61947,1.50819 5.34506,-1.34939 2.03669,-3.37301 5.72256,-7.45294 10.09794,-6.58722 4.86295,0.96281 6.10279,6.88578 8.08581,10.64083 3.61583,6.84766 4.74197,-0.50545 5.54336,-4.6616 -0.63766,-8.12809 -3.62219,-21.1401 -14.24227,-20.53211 z"
           id="react-path-5"
           fill="#7fbbca"
           style="fill:#a3d2ca;fill-opacity:1" />
        <g
           id="react-group-3"
           transform="translate(165.99933,33.734213)"
           fill="#2d3d8b">
          <path
             d="m 652.36989,668.65831 c -4.62121,1.43464 -8.9536,3.54762 -13.40678,5.43478 -5.05445,2.14291 -8.58303,2.51835 -14.10251,2.50928 -21.36856,-0.0317 -42.5155,1.06555 -63.92312,1.49722 -5.84736,0.11789 -11.78281,0.17593 -17.63017,0.0698 -2.36147,-0.0426 -4.67662,-0.31105 -7.02628,-0.50421 -1.5186,-0.12514 -8.13798,0.78443 -9.0208,0.25302 -2.48136,-1.4936 -1.00817,-11.109 -1.3088,-14.19049 -0.52407,-5.34955 -1.87919,-10.50593 -3.76564,-15.53264 -6.75016,-17.98478 -18.10156,-35.53154 -32.45383,-48.36719 19.40672,-8.14991 40.57728,-18.89616 62.11478,-14.0608 8.20247,1.84091 19.07521,4.25043 23.29951,12.18633 4.50859,8.47276 8.45678,17.78708 13.61114,25.89891 5.76017,9.06403 11.87546,16.83126 20.21417,23.62996 3.29061,2.68339 19.87175,19.1655 17.35315,6.44231 -0.80744,-4.08086 -3.79197,-7.87423 -6.17615,-11.20603 -1.21252,-1.69491 -7.74833,-7.25303 -6.73109,-9.21638 1.14168,-2.20275 12.92813,-3.75438 15.45399,-4.45538 5.21794,-1.44644 10.40681,-2.98991 15.60386,-4.50799 -1.87919,3.54218 -12.10253,16.94371 -5.57034,20.3689 2.39961,1.25872 8.60664,-3.19848 11.23604,-3.982 4.48043,-1.33308 8.57576,-0.45524 12.9799,0.86514 -0.11444,2.16195 -4.36145,2.19006 -5.77379,3.66733 -2.06446,2.16104 -3.51495,7.98759 -1.89553,10.57666 3.01632,4.82357 14.69015,-0.0988 19.91081,1.7321 -5.86825,6.05508 -15.07434,8.43376 -22.99252,10.89135 z M 360.78491,469.53894 c 0.0609,0.12514 -0.05,0.29926 -0.75203,0.90776 -0.21435,-0.76901 -0.59582,-0.93769 -1.06448,-0.72639 0.37693,-0.41081 0.68846,-0.62664 1.06448,0.72639 0.29609,-0.25664 0.54132,-0.57495 0.75203,-0.90776 z m 1.78473,-2.5392 c -0.13987,0.4634 -0.45867,0.68014 -0.9455,0.66835 0.0254,-0.0807 0.049,-0.15598 0.0681,-0.21492 0.32334,-1.01024 0.75386,-0.83885 0.61035,-2.69699 0.19346,0.31105 0.3406,0.62391 0.23251,0.93678 0.3079,0.47157 0.3179,0.90686 0.0345,1.30678 z m -51.9414,87.27949 c 0.49319,-1.19071 0.62307,-2.57366 1.25976,-3.66824 -0.62307,1.11 -0.63306,2.47844 -1.25976,3.66824 z M 511.3957,677.16008 c -7.73471,-0.30923 -15.27325,-0.17139 -23.00614,0.16505 -16.52301,0.72004 -33.1205,0.82524 -49.61172,2.15106 -8.06714,0.64841 -15.82274,0.89598 -23.9144,0.62483 -7.07442,-0.2385 -14.17426,0.0136 -21.22687,-0.57948 -7.7438,-0.65113 -14.99442,-2.79131 -22.80997,-2.90738 -7.47223,-0.11155 -16.37133,-0.97578 -23.61922,0.11607 -1.25158,0.18772 -1.9255,0.98576 -3.40142,1.17801 -2.04085,0.26571 -4.91185,-0.56497 -6.99994,-0.70644 -3.66481,-0.24667 -7.71655,0.1587 -11.29235,-0.69556 -1.22797,-0.29291 -2.08809,-0.74362 -3.27881,-1.22426 -1.07538,-0.43347 -3.48498,-0.7672 -4.07626,-0.92227 3.40778,-1.2696 -4.15164,-3.85958 -4.76108,-4.00105 -0.1535,0.516 0.18619,1.23877 0.74477,1.93886 -1.93459,-1.48362 0.13715,-0.93588 -3.02631,-2.43944 -1.3306,-0.63299 -3.84556,-1.04017 -5.33692,-1.20794 -1.43504,-0.16142 -2.20978,0.008 -2.86283,-0.0281 0.13261,-0.146 0.26249,-0.34188 0.38874,-0.60306 1.05539,-2.17827 -2.16165,-4.66487 -3.96908,-3.20211 0.20889,0.42622 0.54767,1.21247 0.9573,1.98511 -0.0182,-0.0209 -0.0336,-0.0372 -0.0518,-0.0589 -0.6703,-0.77445 -1.93096,-2.75412 -3.18617,-4.08629 1.59127,-0.87784 -0.35512,-2.07217 -1.089,-3.29733 -0.50226,0.27659 -1.05902,0.51056 -1.34694,0.89416 0.4178,-0.8724 1.45412,-1.66318 0.84649,-3.3599 -0.17347,-0.48517 -0.63305,-1.2161 -1.20979,-1.72938 0.54767,0.42804 1.11715,0.90323 1.85466,0.80166 -0.92189,-1.39656 -1.26066,-1.92253 -1.61216,-3.32181 -0.24705,-0.98485 1.13078,-1.93614 -0.17802,-2.82667 0.04,-0.92863 0.59218,-5.19266 -1.72387,-3.70451 0,0 0,0 -9.1e-4,9e-4 9.1e-4,-0.002 9.1e-4,-0.004 0.002,-0.005 1.48227,-4.53337 4.0036,-9.21456 5.87733,-13.64728 4.36508,-10.32365 8.85187,-20.72439 13.41949,-30.95736 7.55307,-16.92828 15.43946,-33.81304 24.12967,-50.28609 8.61572,-16.33067 18.02163,-32.12448 26.15325,-48.68096 7.84371,-15.97155 16.99349,-31.2548 24.89169,-47.20188 3.72022,-7.51149 8.70564,-13.72164 9.97448,-22.44923 0.41053,-2.82667 0.54041,-8.72033 -3.73748,-7.66021 -2.78108,0.68921 -6.67387,7.65115 -8.46859,9.91557 -1.60761,-2.20729 -10.67928,-15.17987 -13.11159,-7.45164 -2.08718,6.62731 10.97719,9.51383 5.7647,16.18829 -0.5168,0.66201 -2.65756,1.33036 -3.36055,1.94249 -1.36874,1.1907 -2.62032,3.29189 -3.67753,4.72744 -2.4087,3.27557 -4.40141,6.75517 -6.62846,10.14228 -0.41871,0.63752 -1.95003,2.07942 -2.0681,2.82486 -0.0627,0.3963 0.26975,0.80348 0.52951,1.21519 -1.81197,1.60332 -4.09714,3.01983 -4.5213,5.61707 0.12534,0.0553 0.2416,0.0635 0.3524,0.0426 -1.6839,1.76111 -3.81558,6.03059 -4.12076,6.47495 -2.26882,3.30096 -4.49587,6.75427 -6.73835,10.2366 -1.21162,1.88263 -3.33149,4.09627 -4.02722,6.21196 -0.24068,0.73093 0.46412,2.04134 -0.19345,2.72692 -1.72933,1.80011 -3.41959,1.41651 -4.71295,5.03668 -0.50862,1.42467 -0.55404,3.41794 -1.37238,4.64129 -1.31152,1.96063 -3.18798,2.88471 -4.41412,4.99497 -2.32423,4.00377 -5.11167,8.40021 -6.57669,12.44025 -0.005,0.0163 -0.006,0.0317 -0.0127,0.0481 -0.05,-0.31649 -0.11898,-0.65929 -0.20072,-1.03382 -0.83015,1.49087 -1.65939,2.98265 -2.48863,4.47443 1.43505,-0.28022 2.20344,-0.67107 2.55311,-1.3095 -0.0409,0.21402 -0.10899,0.43529 -0.23978,0.66745 -0.73387,0.33825 -1.50589,0.55137 -2.31333,0.64205 -0.55676,0.91774 -1.07719,1.85543 -1.56311,2.81216 -0.23796,0.48336 -1.03813,3.43336 -1.3751,5.66786 -0.12352,-0.86696 -0.24795,-1.64504 -0.26158,-1.74842 -1.05266,2.02591 -2.10533,4.05183 -3.158,6.07775 1.91006,-1.4682 1.80289,-1.71759 3.62122,-1.75296 -2.29244,0.0453 -5.76108,3.26469 -6.07987,6.35707 -0.0518,0.5024 0.25612,1.05286 0.5286,1.57158 -0.0627,-0.009 -0.12534,-0.0172 -0.198,-0.0236 -2.40052,-0.20313 -1.69844,0.28022 -2.60851,2.28075 0.34786,-0.13966 2.36873,-0.92681 3.12803,-1.54257 0.0827,0.26299 0.0963,0.50422 -0.0318,0.70916 -0.5949,0.94495 -5.45589,0.33464 -2.33422,2.4331 -2.59398,-1.74298 -3.89006,3.98019 -3.00723,5.94716 -0.69845,1.00752 -1.53042,1.93705 -2.31243,2.87021 -1.92278,2.29253 -2.98544,4.03188 -4.24519,6.82409 -2.14439,4.75374 -4.70295,9.47212 -7.04716,14.13517 -0.8901,1.77291 -1.92733,3.28373 -3.01905,4.92967 -1.9364,2.92099 -1.59581,2.19187 -0.0681,5.37403 -0.57311,-0.1859 -1.42142,0.2648 -2.24158,0.91955 0.44596,-0.75722 1.01453,-1.31856 2.24158,-0.91955 -1.93822,-4.03732 -3.60215,0.88237 -4.49405,3.19576 0.04,0 0.0727,-0.0109 0.1099,-0.0127 -0.12171,0.17956 -0.21345,0.33916 -0.26885,0.46612 v 0 c -0.91098,1.8772 -1.98545,3.028 -1.20798,4.99587 0.22343,-1.09548 1.1117,-1.94248 1.48863,-2.8838 -0.53133,2.29526 -3.03539,5.04575 -3.79106,6.56564 -0.62761,1.26235 -0.71662,2.58817 -1.48864,3.96206 -0.72478,1.28955 -1.37782,2.15922 -1.93458,3.63468 -2.69208,7.13605 -4.00269,15.08465 -5.70113,22.57982 -2.00816,8.85726 -2.83467,18.26952 -3.26428,27.33446 -0.12534,2.63442 -0.19436,4.96413 0.75476,7.46615 0.13806,0.36274 1.61579,2.29253 1.57765,2.99897 -0.20436,3.68728 -7.13073,2.92099 -9.79465,2.81489 -4.2352,-0.17049 -7.118,0.51418 -11.18609,1.10273 -3.75291,0.5423 -7.4359,0.24486 -11.24694,1.16622 -6.32964,1.52896 -15.75463,3.95208 -21.87446,0.59218 -2.95819,-1.62418 -6.68477,-6.33349 -8.83189,-8.97607 -2.64303,-3.25198 -3.53221,-6.56473 -4.00541,-10.70725 -0.80835,-7.08799 -0.86376,-14.91869 1.60035,-21.69201 11.44948,-31.47426 31.09054,-60.08467 48.02953,-88.72773 15.89449,-26.87832 33.71358,-52.35464 49.64078,-79.16041 8.41954,-14.16963 18.54933,-28.18872 28.56377,-41.28463 10.23605,-13.3852 17.54025,-27.94932 24.75726,-43.10017 7.4795,3.96659 15.39768,8.04563 23.76273,9.83849 4.75563,1.0193 9.47766,0.71007 14.27326,1.03926 3.53402,0.24213 6.49131,1.07734 10.09073,1.16893 15.7846,0.40174 34.0224,-1.48905 49.11036,-6.1512 3.62031,-1.11816 6.85643,-2.27893 10.25059,-3.89042 4.33238,-2.05675 5.50312,-2.93005 5.74926,1.8518 0.47593,9.25719 1.98727,18.25593 2.69843,27.45871 0.69391,8.97153 2.50043,17.81701 4.09806,26.68062 0.80925,4.48894 1.68118,8.97334 2.34512,13.48586 0.50408,3.42429 2.0245,8.18619 1.42051,11.60867 -0.66575,3.77796 -4.2461,7.61215 -6.29513,10.83603 -2.079,3.27103 -4.1689,6.53481 -6.24245,9.80946 -3.88824,6.14124 -7.75924,11.96869 -12.35138,17.60299 -8.51219,10.44608 -15.76008,21.36917 -23.83176,32.15532 -8.57122,11.4545 -15.69558,23.82674 -24.10695,35.39732 -4.44319,6.11312 -8.9872,11.87801 -11.89907,18.76196 -2.41597,5.71047 -7.27786,10.96298 -10.24968,16.61361 -3.90369,7.41989 -8.86913,14.21588 -12.74557,21.67205 -2.70661,5.20808 -7.93272,10.50593 -8.4813,16.55829 -0.91916,10.15498 8.73652,0.007 10.97083,-2.82395 2.99725,-3.79791 6.28423,-10.44427 10.78737,-12.50283 3.21614,-1.47001 7.91455,-1.31041 11.40498,-2.46121 3.65937,-1.20612 7.24971,-2.45758 10.9445,-3.56032 7.19611,-2.15015 14.13883,-5.1854 21.13422,-7.91504 7.24154,-2.82667 14.48034,-5.67873 21.58564,-8.82099 3.2897,-1.4546 6.0608,-2.20094 9.57484,-2.83393 1.51225,-0.27296 6.92274,-2.82848 8.11346,-2.61174 2.00089,0.36455 4.75927,6.24552 6.27606,7.75725 2.33785,2.33152 4.96816,4.23774 7.15252,6.7461 4.30241,4.94146 8.86095,10.20667 12.59207,15.57617 8.33598,11.99589 16.13246,25.10269 19.09792,39.55254 1.3306,6.48584 -0.22252,6.91659 -6.49404,6.66539 z M 294.59024,661.47691 c -0.0509,-0.10973 -0.0827,-0.21311 -0.10354,-0.31377 0.0263,0.10066 0.05,0.19951 0.10354,0.31377 0.98728,-0.58583 1.24886,-0.27478 1.34967,0.20404 -0.49681,-0.31921 -0.96002,-0.43529 -1.34967,-0.20404 z m -2.29879,-6.69714 c -0.0409,-0.18137 -0.059,-0.34823 -0.0654,-0.50693 0.0145,0.16777 0.0273,0.33554 0.0654,0.50693 0.54041,-0.36183 0.9909,-0.25936 1.42414,0 -0.46139,-0.25029 -0.95821,-0.31286 -1.42414,0 z m 0.99181,-4.38374 c 0.30336,-0.0227 0.6485,-0.18772 1.03723,-0.57857 -0.3188,0.32102 -0.61943,0.65837 -0.89281,1.00933 0.005,-0.0426 0.0118,-0.0843 0.0145,-0.12878 0.006,-0.0843 -0.0627,-0.18862 -0.15895,-0.30198 z M 194.9917,613.67651 c -2.24703,5.29785 -3.18253,11.09539 -5.09169,16.52111 -1.45956,4.15068 -2.04267,8.25148 -2.42504,12.59261 1.3315,0.98121 1.30153,1.84545 -0.0899,2.5936 -0.099,0.94404 -0.1326,1.8908 -0.10082,2.84028 -0.36148,2.7641 0.17167,5.16908 0.90281,7.81801 1.15894,4.20056 2.62759,7.21858 4.78288,10.84963 -13.08071,4.43815 -27.98339,5.6869 -41.70715,5.36587 -7.41774,-0.17412 -15.73828,-0.18954 -22.96619,1.63959 -7.78285,1.9706 -14.60749,1.14718 -22.60288,0.45887 1.16802,-2.35329 5.6321,-6.27907 7.89276,-7.91413 1.15076,-0.83068 3.04356,-0.97306 3.9164,-1.9044 1.24522,-1.32764 1.39145,-3.90492 1.87464,-5.64518 3.08444,-11.09902 5.36689,-22.29053 7.3042,-33.64256 3.41323,-20.0116 4.99905,-40.49658 6.0054,-60.65872 0.0854,-1.7058 0.96638,-3.62017 0.92369,-5.23528 -0.0563,-2.12205 -0.66302,-2.8167 -0.49227,-4.94962 0.11081,-1.39112 1.77837,-3.2792 1.65757,-4.51615 -0.0763,-0.77536 -1.97455,-0.1061 -1.86011,-1.62236 0.17711,-2.33697 3.2016,-5.41575 3.88825,-7.5124 0.30517,-0.93316 -0.83288,-1.86269 -0.79745,-2.88109 -0.01,0.2902 0.75112,-3.15223 0.77928,-3.27647 0.22979,-0.98938 1.15621,-1.40472 1.10626,-2.61718 -0.0463,-1.10184 -1.65121,-2.54464 -0.78201,-3.68638 0.87919,-1.15533 2.70025,0.59218 3.25428,-0.41715 0.63033,-1.14536 -2.13985,-5.05482 -1.83195,-6.82863 0.53859,-3.10326 2.65029,-6.4414 3.47681,-9.59273 0.30971,-1.18163 -0.18892,-2.64167 0.77201,-3.6646 1.67301,-1.78107 3.12441,0.0453 5.53674,-0.55228 -2.39326,-2.03317 -2.92005,-3.99289 -2.20979,-6.97191 0.57583,-2.41949 1.68663,-5.03668 4.3006,-2.64711 -0.34423,-3.15042 -0.71299,-3.46964 1.54948,-6.10133 1.95275,-2.27168 4.48407,-4.99225 6.82192,-6.73251 3.49406,-2.60267 9.07167,-3.94119 13.21604,-4.24681 4.52312,-0.33372 10.08347,2.09031 13.50669,5.50916 4.16345,4.15793 9.54851,7.18865 14.27235,11.1634 5.04446,4.24409 9.37503,9.2853 14.22149,13.78422 0.99454,0.92318 2.82649,3.50591 4.36326,3.06154 2.50679,-0.72457 0.48229,-4.46536 -0.0672,-6.13034 -3.90732,-11.83902 -10.92996,-23.7669 -20.59018,-31.84427 -4.98179,-4.167 -9.93815,-9.43674 -15.72919,-12.47109 -4.67843,-2.45214 -8.33235,-2.06582 -13.30597,-2.24084 -4.25155,-0.14963 -5.12529,-0.40083 -8.91635,1.3884 -2.68754,1.26778 -5.34873,2.50564 -7.88458,4.05637 -4.05537,2.47844 -8.23789,5.49101 -11.23514,9.23633 -7.97904,9.97361 -11.09345,22.65599 -14.22875,34.80968 -3.45047,13.36797 -5.82556,26.43033 -6.24427,40.30161 -0.42506,14.1134 -1.07901,28.01914 -2.47046,42.07632 -0.72388,7.31017 -1.55675,14.60492 -2.50134,21.89061 -0.87011,6.71618 -0.91552,13.93566 -2.26882,20.53123 -1.7048,-2.48388 -2.23431,-4.40188 -3.17527,-7.07802 -0.63487,-1.80192 -1.27882,-1.73935 -2.19798,-3.0688 -1.9473,-2.81125 -4.38143,-8.14357 -5.148,-11.61502 -0.46957,-2.12204 -0.0354,-3.18578 -0.90553,-5.053 -0.26885,-0.57676 -1.730231,-0.12515 -1.964561,-1.03835 -0.168028,-0.65566 0.747491,-1.16259 0.706621,-1.38568 -0.0954,-0.5169 1.32606,-1.09094 0.0981,-2.71694 -1.744757,-2.30795 -0.851941,0.58855 -1.793803,0.54865 -0.784734,-0.0335 1.570373,-8.00119 1.293358,-9.15744 -0.09809,-0.40899 -1.43323,-0.4634 -1.540404,-0.84337 -0.324248,-1.14899 -0.250679,-2.81307 -0.566752,-4.06 -0.772927,-3.04341 -1.920055,-4.26404 -1.976367,-7.74002 -0.07448,-4.59323 -1.776551,-7.84612 -2.595798,-12.22896 -0.158037,-0.84247 0.769293,-1.75476 0.595816,-2.48206 -0.351495,-1.48362 -1.449578,-2.78224 -1.853752,-4.35291 -0.778376,-3.02256 0.26067,-7.2875 0.04814,-9.74599 -0.1871,-2.15106 -0.790183,-5.64246 -1.187091,-8.31497 -0.645771,-4.35019 0.514981,-2.93005 2.404156,-5.66694 -2.619413,-0.84519 -2.286083,-0.10157 -3.123496,-2.91645 -0.965477,-3.25108 -0.876468,-5.16818 2.072642,-3.36807 -0.783825,-1.9316 -2.238853,-4.29759 -2.558559,-6.36704 -0.297,-1.92253 0.405991,-3.68818 0.205266,-5.59711 -0.544954,-5.16636 -2.15711,-7.97036 0.777468,-12.98347 -3.771991,-1.9316 -2.128954,-8.58521 -2.720229,-12.29788 -0.636689,-4.00649 -2.18345,-7.74908 0.798357,-10.35902 -3.066275,-2.20547 -1.851935,-8.53352 -1.83922,-11.91246 0.0054,-1.5335 0.524973,-4.23139 0.393275,-5.59259 -0.09173,-0.95673 -0.742954,-1.59969 -0.931871,-2.71422 -0.696633,-4.13073 0.841954,-8.22065 -0.08356,-12.32962 -1.043587,-4.63041 -1.165293,-8.57977 -1.523147,-13.11767 -0.346046,-4.39826 -1.02633,-8.96972 -1.318789,-13.47861 -0.216165,-3.34539 -1.52133,-6.96557 -0.920064,-10.43157 0.04723,-0.27296 0.843771,-2.73871 0.866477,-2.1819 -0.03724,-0.89144 -0.685734,-1.99417 -0.715706,-2.52559 -0.213441,-4.01193 -0.289734,-7.28297 -0.118074,-11.35475 -0.0082,0 -0.01726,-0.002 -0.02543,-9.1e-4 0.496817,-0.30198 0.764752,-0.92953 0.785642,-1.90802 3.752918,-0.36275 7.858239,0.55409 11.65112,0.65475 4.087156,0.10882 8.161595,-0.0952 12.244205,-0.28385 2.62668,-0.12152 8.28694,-1.36573 10.28692,0.82705 1.44867,1.58882 0.53769,9.76503 0.63396,11.89161 0.11444,2.5129 1.386,6.45591 -0.0836,8.65413 -0.91189,1.36482 -2.97272,1.90984 -4.03538,3.40615 -0.64668,0.9114 -1.17256,2.43945 -1.51588,3.42883 -1.03814,2.98265 -1.4514,6.20108 -1.29245,9.34969 0.74931,14.74095 12.56301,21.50973 25.82719,15.56982 11.55484,-5.17362 14.6965,-20.82415 4.76835,-29.59345 -2.33695,-2.06491 -4.8283,-2.58907 -7.81101,-3.09873 -1.89553,-0.32375 -7.06896,-0.12514 -8.30783,-1.47817 -1.22978,-1.34215 -0.93005,-5.53001 -1.06629,-7.27299 -0.21889,-2.79675 -1.34331,-6.95287 -0.73387,-9.65167 -0.99908,-2.24901 -0.33242,-3.2003 2.0018,-2.85479 0.73932,-0.14872 1.47864,-0.29745 2.21705,-0.44617 1.86193,-0.33735 3.69116,-0.74453 5.58215,-0.87421 3.37054,-0.23125 6.65661,0.16867 10.02897,-0.28203 3.30787,-0.44255 6.55035,-1.2696 9.86458,-1.69764 3.52131,-0.45524 6.97995,0.0508 10.46493,-0.54683 7.23336,-1.23877 15.00532,-2.90466 21.77274,-5.74766 1.81288,-0.76085 4.8846,-2.95363 6.89548,-2.59179 2.4087,0.43438 1.76475,1.96606 2.45866,4.25678 3.84737,12.70597 11.84185,25.25958 20.30317,35.36105 7.98721,9.5356 18.51663,17.22483 28.03971,25.2224 5.77379,4.84896 11.31779,9.94549 16.67832,15.24516 3.89006,3.84689 8.06441,9.86116 13.08889,12.07933 1.14531,0.0426 5.56125,-0.46341 6.36869,0.36456 0.93188,0.9531 0.87466,1.48543 0.50318,2.08032 1.0672,-2.81125 -4.01086,-2.33787 -6.87187,-2.44488 0.32425,0.54502 3.53675,6.98823 4.33147,3.40434 0.4614,0.27477 0.92279,0.55046 1.38419,0.82524 -2.28336,5.04393 -5.23974,10.09966 -8.45133,14.61399 -2.34058,3.29189 -5.36417,5.67238 -7.46497,9.08398 -2.6512,4.30485 -4.86008,8.77293 -8.21881,12.60802 -6.6984,7.65115 -10.42679,17.93762 -16.26688,26.42671 -2.80652,4.07994 -4.27153,7.87242 -7.19249,11.93332 -2.28427,3.17762 -5.9845,7.19772 -7.31601,10.85416 -0.53133,1.46186 0.0391,2.72964 -0.93459,4.08358 -0.61489,0.85607 -2.43686,1.78469 -3.29607,2.6725 -3.41232,3.52495 -6.07351,8.55347 -8.75015,12.70053 -2.85101,4.41548 -4.83737,8.99692 -7.25243,13.5965 -2.47681,4.72018 -6.57668,8.06467 -8.72199,13.12221 z m -88.80572,20.14763 c -1.77474,0.0272 -2.43958,0.0363 -2.63758,-0.74181 -0.0581,-0.23397 -0.0763,-0.53868 -0.0681,-0.93497 -0.008,0.39629 0.01,0.701 0.0681,0.93497 0.198,0.77808 0.86284,0.7681 2.63758,0.7409 z m 0.22161,-6.60917 c 0.18347,0.49605 -0.92188,1.33852 -3.86009,1.02746 2.91006,0.30834 4.02358,-0.52778 3.86009,-1.02746 z m -7.224272,16.59275 c 0.263394,0.23306 0.518614,0.4761 0.767477,0.72639 -0.247955,-0.25029 -0.504083,-0.49333 -0.767477,-0.72639 z m -18.323175,34.69723 c -2.392348,-0.83612 -8.616633,-2.3152 -12.669275,-4.06362 1.807431,0.50693 3.689339,0.92318 4.41322,1.17619 2.75111,0.96218 5.503129,1.92526 8.256055,2.88743 3.898239,-14.05264 18.534799,-19.40854 31.058757,-24.59667 -6.03355,-0.25301 -8.18885,-5.49101 -11.8355,-9.23451 3.63939,3.73443 5.82919,8.98241 11.8355,9.23451 -12.522142,5.18722 -27.160518,10.54584 -31.058757,24.59667 z M 67.169987,664.35799 c -0.137146,0.22762 -0.273385,0.46341 -0.410532,0.72005 -0.373293,0.69827 -1.779275,3.82058 -2.369642,5.87098 -0.118982,-2.10753 1.131688,-4.57237 2.780174,-6.59103 z m 13.779165,-266.8171 c 0.223432,-0.0889 0.403266,-0.10339 0.566753,-0.0907 -0.654853,0.0299 -0.832872,0.8071 -0.861028,1.88536 -0.568569,-0.60397 -0.703899,-1.39566 0.294275,-1.79467 z m 45.457348,32.4718 c 4.26517,2.11842 8.4041,3.35084 12.47309,5.91271 -4.99178,3.88134 -20.92896,10.14863 -20.45303,-1.84455 0.0563,-1.39746 0.87283,-5.15185 2.14802,-5.98344 1.94004,-1.26325 4.14075,1.07554 5.83192,1.91528 z M 77.580428,374.16938 c 18.781844,6.55476 40.662662,4.93421 59.752402,1.73754 20.50935,-3.43427 40.98691,-5.45656 60.85503,-11.88526 0.02,2.76682 1.21979,5.66423 -0.97274,7.94497 -1.71843,1.78832 -5.4441,2.12658 -7.71474,2.87927 -5.94,1.96969 -11.04168,4.83898 -17.25052,6.01608 -6.95452,1.31857 -13.90178,1.29227 -20.91625,2.07217 -2.54039,0.28294 -4.92911,0.73727 -7.3151,1.19614 -3.30424,0.0499 -5.89277,0.49787 -9.19156,1.41379 -11.80007,0.0553 -23.52022,0.40537 -35.271247,-1.00026 -5.968156,-0.7146 -11.870917,-1.58972 -17.854514,-2.19913 -5.603945,-0.57041 -4.352367,-2.98627 -4.120761,-8.17531 z m -7.185221,-50.41486 c -11.060752,3.05519 -22.468458,2.14108 -33.351192,-1.35666 -7.869138,-2.52832 -18.308642,-6.23283 -19.963486,-15.81014 -1.092633,-6.31807 2.693889,-7.46342 7.147073,-10.08605 2.130771,-1.25509 3.167092,-2.20276 4.600321,-4.32843 0.850128,-1.26325 1.614881,-4.43181 2.569459,-5.29513 2.326046,-2.10572 9.667486,-0.25755 13.306871,-0.41988 5.42411,-0.24213 9.100734,-2.06582 14.090698,-3.67458 8.813724,-2.843 14.39133,-6.28996 21.233229,-12.79393 6.655706,-6.32623 14.470349,-12.76128 19.851771,-20.21655 6.026279,-8.34852 11.793719,-16.47214 18.358599,-24.43434 4.86462,-5.90001 13.69015,-17.71 22.4185,-17.65577 4.38143,0.0274 3.73294,4.15993 7.21247,6.25931 3.17708,1.91709 7.33326,0.5831 10.82461,0.2512 -2.30153,5.23165 -5.49405,10.61203 -4.36418,16.53199 0.63306,3.31546 0.97002,4.45992 -0.32516,7.59764 -1.18345,2.86567 -2.46319,5.40577 -3.19615,8.47457 -2.85465,11.96053 -4.20523,25.42191 -3.00815,37.65177 2.07264,21.17147 9.32689,43.03034 25.19596,57.97624 3.61758,3.40706 7.59666,6.13126 12.02713,8.37301 4.41958,2.2363 4.78561,4.56511 -0.68936,5.56356 -10.66385,1.94521 -21.48936,3.27466 -32.2295,4.71837 -10.72651,1.44191 -21.64285,2.9491 -32.45928,3.17038 -5.35054,0.10972 -10.6693,0.77626 -16.01893,0.39629 -2.66392,-0.18953 -5.311486,-0.66563 -7.98267,-0.73909 -2.332403,-0.0644 -5.81466,1.10093 -7.985394,0.18137 -3.397789,-1.43827 -1.708431,-11.38286 -1.957293,-14.83617 -0.28701,-3.96296 -2.787441,-11.39465 -1.302441,-15.14087 1.043587,-2.62988 4.873706,-3.73262 6.858248,-5.7794 3.256101,-3.35899 6.336,-7.341 7.579404,-11.92062 4.123486,3.32816 0.575834,5.4629 1.827416,9.52108 1.36601,4.42818 3.88461,3.03616 5.85644,-0.002 3.29152,-5.07205 3.07081,-12.91001 -0.0772,-17.96664 -1.82197,-2.92461 -4.78198,-5.12283 -7.81828,-6.68625 -2.457744,-1.26507 -7.896386,-3.74623 -10.617523,-2.64712 -7.385037,2.98447 0.475018,11.80365 4.228844,13.89758 -0.901899,2.60539 -7.298753,6.36431 -9.737422,7.47703 -3.623037,1.6532 -8.214276,2.67432 -12.103432,3.74804 z m 101.361463,-80.7737 c 0.0972,1.41923 0.24796,2.77498 0.71662,4.13254 0.95549,2.76863 2.86646,5.16727 5.49949,6.53753 5.10804,2.65981 15.46762,-1.16985 19.95804,-4.30757 0,9.5102 1.7048,17.0752 4.4332,26.09751 2.6394,8.7294 8.04171,15.83281 12.63749,23.58281 2.38327,4.01918 4.57126,8.16805 7.93635,11.4681 3.42049,3.35356 3.98997,4.63948 3.67753,9.58457 -0.51316,8.14538 -4.39233,13.70078 -11.72469,17.07338 -5.80921,3.22025 -17.80456,5.83653 -24.13329,3.14589 -6.65298,-2.8294 -13.13339,-10.15408 -17.44217,-15.792 -9.78828,-12.80753 -14.75281,-32.09909 -14.1579,-48.02258 0.30971,-8.29411 0.7484,-16.78138 1.54222,-25.04556 0.57765,-6.02062 0.36693,-14.67657 9.12525,-11.96325 2.82922,0.87602 1.70389,0.22218 1.93186,3.50863 z m 33.60551,111.21686 c 0.84468,-1.7203 8.27694,-3.44877 9.57121,-2.44035 1.96274,1.53078 2.04449,10.45606 2.73385,12.99616 1.09354,4.03279 2.53222,8.01752 4.26518,11.81997 3.63757,7.97671 8.85641,16.21459 15.048,22.42747 6.41683,6.43505 13.79006,10.89406 21.58109,15.50633 2.22614,1.31857 4.38143,2.90829 6.66842,4.10534 0.96003,0.5024 2.7384,0.73728 3.49407,1.49178 1.8701,1.86994 1.00544,5.70685 0.98364,8.14085 -0.0899,9.75143 -0.0572,19.18636 1.23523,28.80539 -7.6339,-5.90817 -14.5312,-13.40787 -21.32769,-20.29636 -7.12618,-7.22401 -16.3023,-11.99317 -23.05973,-19.64341 -6.148,-6.95922 -10.98719,-15.07105 -15.50395,-23.12121 -1.97818,-3.52677 -5.74745,-8.02296 -5.88278,-12.14553 -0.14714,-4.44541 1.88009,-9.15109 1.90371,-13.7552 0.0154,-3.25743 -2.96455,-11.33298 -1.71025,-13.89123 z m 91.66855,99.54745 c -0.46412,2.94456 -0.0935,9.25719 -4.18979,9.89108 -2.82014,0.4371 -4.55491,-2.23903 -5.5885,-4.48078 -3.12168,-6.77603 -2.0899,-15.81285 -3.2552,-23.09128 -1.37691,-8.59337 -1.40961,-17.06613 -2.47409,-25.6722 -0.93823,-7.58767 -4.06899,-17.16044 -2.36237,-24.63846 1.54676,-0.038 5.72565,14.59412 6.62755,16.91386 1.85647,4.77732 3.9936,8.79741 5.5994,13.75066 2.12714,6.55929 3.97181,12.82386 4.95182,19.68785 0.68936,4.82448 3.27426,13.39246 0.69118,17.63927 z m 22.65919,-32.35211 c -3.82285,5.93357 -7.95088,12.11742 -13.33775,17.06795 0,-2.76863 -2.06992,-11.76828 -0.66666,-13.90846 1.67119,-2.54826 11.15612,-2.66525 14.00441,-3.15949 z M 171.40609,187.68525 c 3.24792,-1.47455 6.87187,-1.93886 10.14704,-3.46238 3.13167,-1.45641 5.45772,-2.33516 8.93362,-2.62082 12.07981,-0.99119 24.38034,2.10119 35.55735,5.48286 6.15162,1.86087 11.00444,5.939 16.20057,9.47211 5.37507,3.65373 8.32236,6.83589 10.66294,13.01883 5.03538,13.30087 8.13435,25.87715 10.13706,39.90259 2.03267,14.23039 -1.26793,28.61404 -1.06176,42.87436 0.20164,14.06806 1.20617,28.7147 5.6757,42.10988 3.45501,10.3572 9.57939,27.02885 22.48572,28.06176 12.25238,0.98031 22.61741,-11.6522 27.68185,-21.13519 13.39134,-25.07368 18.42308,-53.73487 19.14969,-81.87463 1.89008,-9.4168 2.97181,-19.56996 6.2488,-28.60044 3.64393,5.69869 6.61575,11.81453 9.96631,17.68824 3.67662,6.44775 3.44048,11.70751 3.12168,19.0331 -0.24705,5.69597 -2.25611,11.13892 -2.98726,16.8113 -0.84377,6.54841 -2.39326,12.93268 -2.76564,19.54639 -0.43687,7.79896 -0.002,15.67864 -0.6594,23.45765 -0.55131,6.54206 -1.99544,13.11224 -3.04357,19.59354 -1.01815,6.29812 -1.14349,12.4992 -0.99363,18.77737 0.14532,6.07684 2.24612,11.97867 7.39503,15.23065 -7.65297,9.44401 -17.1933,23.35156 -30.01335,25.58968 -4.29787,0.74997 -8.31237,1.33489 -12.66473,1.65229 -3.53857,0.25845 -7.67387,2.24447 -10.72561,0.0381 -5.25336,-3.79792 -6.28877,-12.26161 -8.27422,-17.79706 -1.37328,-3.82875 -14.98896,-35.18693 -22.15602,-26.30246 -1.27701,1.58246 -0.97546,7.39179 -1.17074,9.62084 -0.28156,3.2139 -0.15168,6.48221 -0.25431,9.70699 -0.13079,4.10534 -0.495,8.26781 -0.20981,12.37224 0.17348,2.47481 1.65938,5.14641 -1.14349,5.74312 -2.59399,0.55137 -8.06351,-4.60229 -9.95178,-5.93719 -2.53312,-1.79104 -5.26425,-3.135 -7.83099,-4.86075 -5.27606,-3.54671 -9.46131,-8.01207 -13.21604,-13.07324 -3.77926,-5.09291 -7.14435,-10.80791 -9.702,-16.62358 -1.29881,-2.95091 -2.35965,-5.97437 -3.44411,-9.00509 0.0236,0.0671 -1.61034,-3.75438 -1.52042,-4.02191 0.28791,-0.85426 3.74292,-2.27349 4.59577,-2.94637 9.74833,-7.69377 11.70017,-26.82663 9.10891,-38.01724 -1.56856,-6.77059 -6.75652,-12.71957 -10.44223,-18.48445 -3.55946,-5.5681 -7.32509,-11.02284 -10.27874,-16.94915 -3.2561,-6.52846 -5.77197,-13.38338 -8.69293,-20.05966 -1.40961,-3.22206 -3.10079,-4.8798 -0.99545,-7.83071 1.28973,-1.80917 3.96,-2.55008 5.10895,-4.52974 1.15712,-1.99237 1.27701,-5.83653 -0.80472,-7.2603 -2.277,-1.55888 -5.58578,0.61848 -7.67204,1.4673 -2.78381,1.13175 -5.56489,1.6804 -8.40592,2.55098 -3.22522,0.98939 -6.12892,3.17672 -9.55305,3.17672 1.84104,-6.34074 9.79646,-5.73949 12.37773,-11.63587 1.76293,-4.03007 1.53314,-11.52887 -3.96454,-12.19359 -3.12168,-0.37726 -5.58397,2.00415 -7.90456,3.60203 -3.05538,2.10209 -5.36144,2.49476 -8.93997,3.15314 -1.31788,0.24304 -3.45774,1.47818 -4.7075,1.0583 -2.02814,-0.68014 -0.85739,-0.26027 0.20436,-1.92707 1.57855,-2.47844 5.31239,-4.89884 7.56941,-6.70802 5.07443,-4.06725 12.10707,-6.99911 16.50303,-11.72837 2.90551,-3.12684 4.33329,-13.64003 -1.18709,-15.31771 -2.21433,-0.67379 -5.81648,1.52261 -7.9854,2.19369 -3.66572,1.13447 -7.40047,2.0377 -11.01715,3.33179 -6.42501,2.29797 -12.5948,5.02761 -19.11336,7.0898 3.71386,-5.28697 10.76738,-9.84574 16.62201,-12.50464 z m 217.26867,-1.54982 c 0,3.63287 1.386,10.53948 -0.17802,13.84225 -1.41052,2.97449 -9.97629,4.63223 -13.0017,5.76852 -9.79646,3.68002 -19.51208,7.7772 -29.52652,10.82424 10.32052,-15.28507 25.65735,-24.15866 42.70624,-30.43501 z m -1.44413,-49.35566 c -2.53858,3.64556 -6.95089,8.58884 -12.11433,6.86581 -5.56489,-1.85724 -9.92452,-10.37897 -7.08168,-15.78656 2.42959,-4.61952 9.3614,-7.51784 13.64202,-3.87681 0.93369,0.7935 1.54313,2.82486 2.43685,3.44606 0.57402,0.3972 1.48318,-0.66745 2.18345,-0.24123 2.07083,1.25691 2.86737,4.32571 5.85372,4.06907 1.38236,-0.1179 5.81193,-3.729 6.71837,-4.65218 2.42596,-2.47118 1.58037,-5.00312 1.96366,-8.25058 0.5286,-4.47352 3.61486,-5.16001 7.16705,-7.46796 3.38144,-2.19822 6.09985,-5.4765 9.44496,-7.59401 3.99361,-2.52832 1.7048,0.67742 5.35327,0.99482 0.65758,0.0571 2.12714,-2.1293 3.26972,-2.09303 1.48046,0.0472 2.12351,1.03291 2.96819,2.10754 1.83831,2.33515 0.48591,3.06789 3.68934,3.61201 2.31242,0.39267 3.74383,-1.28683 5.72111,-1.25419 1.61669,-1.83094 4.01177,-5.65425 6.90275,-4.52521 1.95729,0.76448 2.65756,4.86438 3.07717,6.57652 1.58945,6.49037 1.46956,14.11794 1.5286,20.77427 -3.71931,-2.60993 -4.2016,-4.36379 -5.36326,-8.57161 -0.75476,-2.73417 -2.57854,-6.75154 -4.56671,-2.64439 -0.56494,1.16531 -0.0808,2.95272 -0.45413,4.23321 -0.43324,1.48543 -1.47047,2.21726 -1.63214,3.83781 -0.39055,3.93032 2.82922,5.27791 5.60667,7.19137 -2.59216,2.79403 -10.05077,0.68559 -8.06169,6.65089 2.10262,6.30356 10.18156,2.81307 14.2115,1.23151 3.43503,13.02155 -11.82732,19.29609 -21.12787,22.85731 -5.46135,2.09031 -7.59757,3.25562 -8.3487,9.63173 -0.64305,5.46471 0.0926,11.06092 2.09716,16.16562 0.8029,2.04587 1.5722,4.84261 2.66755,6.73613 0.92915,1.60423 2.77927,1.71577 3.40324,2.61084 2.29789,3.30095 0.64305,10.46421 0.3742,14.42627 -0.73477,10.8333 -4.10986,20.699 -5.56034,31.27113 -0.74387,5.40668 -2.97182,10.46875 -3.92731,15.81285 -0.87556,4.90338 -1.2216,9.53197 -5.35326,13.03788 -8.30329,7.04536 -14.72466,-3.359 -17.60111,-10.1976 -4.09806,-9.74145 -4.50677,-22.54355 -3.83103,-32.93068 0.73569,-11.29127 5.90095,-22.13908 6.17433,-33.34692 0.29155,-11.98592 -1.51861,-23.36516 -4.51676,-34.95388 -1.31062,-5.06479 -3.21886,-9.59907 -4.83647,-14.4961 -1.32242,-4.00377 0.86648,-7.6194 -2.07809,-11.25771 z M 408.81354,18.204667 c 9.1e-4,0.0091 9.1e-4,0.01723 0.003,0.0263 -0.0527,-0.05895 -0.10535,-0.115171 -0.16258,-0.184092 0.06,0.07164 0.11172,0.120612 0.15986,0.157793 z m 0.24795,-1.122688 c -0.12352,-0.846097 -0.39509,-1.910747 -0.58037,-2.389567 0.44958,0.276591 0.96002,0.508747 0.97728,0.798941 0.0481,0.832494 -0.19073,1.224256 -0.39691,1.590626 z m 12.32596,2.13746 c -0.0863,0.04897 -0.16985,0.102475 -0.25704,0.149631 -0.20618,0 -0.37784,-0.04353 -0.53133,-0.111543 0.059,0.0127 0.12352,0.02267 0.19709,0.02811 0.20073,0.01451 0.39782,-0.01542 0.59128,-0.0662 z m 6.44317,-2.122951 c -1.15439,-0.0091 -2.36964,-0.116984 -3.7184,0.467938 0.21435,-0.128773 0.42779,-0.243944 0.64486,-0.321027 0.60399,-0.214018 1.88009,-0.19044 3.07354,-0.146911 z m -65.3509,316.746802 c 0.24795,-5.42209 0.24432,-7.0499 4.50495,-10.54583 3.5522,-2.91464 6.98813,-5.97346 10.57666,-8.84457 7.94634,-6.35888 16.43672,-13.09138 25.47115,-17.83968 5.06172,-2.65981 18.87358,-8.02024 15.38315,2.48025 -3.29425,9.90922 -9.65023,18.71117 -15.12248,27.51493 -5.57851,8.97425 -11.15884,17.95576 -16.95352,26.79126 -2.52132,3.84326 -5.1807,7.61306 -7.59303,11.52433 -2.37327,3.85051 -2.61759,6.44685 -7.48494,4.85259 -3.53676,-1.15896 -7.53309,-2.57094 -10.87002,-4.07813 -2.93004,-1.32401 -2.75474,-2.13293 -2.83558,-5.57626 1.8147,-8.90261 4.50314,-17.06613 4.92366,-26.27889 z M 385.15345,225.3479 c -1.2316,4.9605 -10.06712,5.55087 -14.83366,6.51304 -0.81924,0.16505 -4.97089,1.5081 -5.74563,1.04742 -1.5295,-0.90958 -0.77747,-3.53855 -1.42869,-4.81178 -3.56854,-6.96828 -3.62122,1.94067 -4.63756,4.03823 -2.78199,5.74766 -7.04444,-5.75944 -8.60664,-8.57705 -1.20253,-2.16829 -2.49135,-3.27103 -1.24613,-5.09109 1.03632,-1.51535 6.80376,-2.55552 8.57486,-3.20936 6.45861,-2.38594 12.90088,-4.81541 19.34223,-7.2476 2.77291,-1.04742 11.31234,-6.53118 11.21879,-1.26053 -0.92097,6.06415 -1.16438,12.66606 -2.63757,18.59872 z m -4.82921,59.23223 c -2.7175,0.84429 -10.098,4.23049 -12.84638,2.63351 -2.3206,-1.34758 -0.71752,-6.07321 -0.45685,-8.53261 0.49227,-4.63585 0.42052,-9.67978 0.15712,-14.33014 -0.38782,-6.86853 -0.95911,-7.41083 5.8183,-9.2581 2.6185,-0.7146 10.61389,-4.58235 12.55937,-2.40136 0.90826,1.0184 0.52407,4.25679 0.72388,5.49102 0.43324,2.67069 1.17801,5.28153 2.15348,7.8035 1.68663,4.35926 4.14801,8.27325 6.72383,12.14915 -4.6194,2.84209 -9.6684,4.83899 -14.83275,6.44503 z m -15.34409,-48.5676 c 1.17347,-1.68675 7.01356,-1.92707 8.94452,-2.33515 3.41232,-0.72186 6.82645,-1.43556 10.23968,-2.15651 0.18347,4.15703 2.53313,15.01392 -0.45685,18.01289 -1.68118,1.68766 -7.30511,2.12204 -9.68565,2.70787 -2.59398,0.63843 -5.19251,1.26507 -7.79012,1.89171 -0.29428,-4.0065 -0.5395,-8.01571 -0.96638,-12.01132 -0.15623,-1.46911 -1.23887,-4.73742 -0.2852,-6.10949 z m 0.67393,54.88204 c 1.79562,-2.06672 6.6548,-2.00687 9.35595,-2.63804 4.30242,-1.00661 8.38049,-2.3805 12.45311,-4.08267 2.27882,-0.9522 6.76833,-4.21235 9.28784,-3.3862 0.70571,0.23125 2.18254,3.13863 2.71932,3.68456 0.91825,0.93406 2.10443,1.56704 3.16891,2.30432 2.93276,2.03226 4.71294,2.66434 8.17158,3.35265 -18.08975,7.41808 -32.62367,20.61556 -47.5863,32.79102 -1.06175,-0.89054 -0.47229,-8.84911 -0.35513,-10.67552 0.21617,-3.38892 0.36149,-6.82046 0.6158,-10.22117 0.20799,-2.79403 0.26158,-8.93345 2.16892,-11.12895 z m 54.9341,72.16945 c -0.54586,3.08694 -0.62851,7.32649 -1.95184,10.17856 -1.21343,2.61265 -1.06539,2.43037 -4.29243,2.50836 -4.07716,0.0988 -8.75378,0.78171 -12.70106,-0.45887 3.52494,-7.78536 6.45861,-16.24542 11.28146,-23.34792 1.51497,-2.22996 4.44047,-7.94044 7.60937,-7.60037 3.17981,0.34189 2.48136,3.5313 2.22978,5.83834 -0.47048,4.30757 -1.42052,8.61514 -2.17528,12.8819 z m 15.88087,-121.43805 c 2.44866,-16.79407 2.24158,-33.21271 2.24158,-50.12558 3.90732,0.51691 8.21155,0.19135 11.97809,1.29681 -1.21616,3.87771 -4.72294,7.37546 -1.25158,11.0573 3.52495,3.73987 11.74286,5.37947 16.50757,6.75608 5.58124,1.61329 11.27056,3.5848 17.0053,4.54335 2.57763,0.42985 5.38505,0.84791 7.98539,0.34823 4.11713,-0.79078 4.48043,-1.88354 7.18704,2.35783 0.0136,0.0227 0.0372,0.0571 0.0518,0.0816 -0.78201,-0.44889 -3.26155,-0.17865 -2.60125,-0.1596 0.0972,0.34188 0.2416,0.68195 0.32697,0.99845 -0.73114,-0.60034 -2.34603,-1.10637 -2.57037,-1.14627 -2.69207,-0.47338 -6.10802,0.73455 -8.7011,1.33308 -5.81375,1.34305 -11.58481,2.80672 -17.216,4.79545 -4.7402,1.67406 -9.43498,3.54853 -13.95628,5.74766 -3.49043,1.69764 -11.55121,4.68754 -12.65293,8.84638 -2.11169,7.9749 18.95623,14.03451 24.09333,16.73423 4.85191,2.54917 3.31968,6.32985 3.37509,11.39465 0.059,5.50099 0.55767,10.95029 0.1762,16.43949 -0.29518,4.25316 -0.62125,3.59387 -4.86372,3.5177 -3.17708,-0.0571 -6.35507,-0.185 -9.52943,0.004 -4.47861,0.26662 -9.07712,0.88691 -13.28053,2.51562 -6.28786,2.43582 -18.36495,14.0327 -6.33055,17.56672 4.95545,1.4555 11.34503,0.92318 16.42401,0.57222 4.40504,-0.3047 11.30689,-2.30976 15.55753,-0.79531 2.21615,-0.62754 3.01541,0.17774 2.39871,2.41587 0.10172,1.5353 0.20435,3.06971 0.30608,4.6032 0.20526,3.08785 0.41053,6.17478 0.6158,9.26263 0.42052,6.31807 0.84014,12.63705 1.25884,18.95511 -3.69297,-5.23346 -8.77285,-15.55893 -16.64199,-14.37911 -6.7538,1.01205 -10.7474,11.48534 -12.92177,16.8902 -1.76838,4.391 -2.91006,8.9942 -4.10532,13.56476 -1.14895,4.39553 -1.56765,10.60931 -3.66845,14.59222 -2.0681,3.92307 -4.94364,2.60631 -9.17885,3.00986 -5.29513,0.50421 -3.16073,-2.45939 -2.31877,-6.95922 1.28155,-6.85492 5.81829,-18.68124 1.44412,-25.07004 -5.58578,-8.15536 -13.47671,6.95559 -15.62202,11.03644 -2.00633,3.81515 -3.71658,7.76904 -5.25244,11.79458 -0.99182,2.59814 -1.79381,8.20886 -4.35328,9.6299 -3.13439,1.74298 -8.10438,-1.04288 -10.98355,-1.95427 -3.38144,-1.07009 -7.07714,-1.51717 -10.5494,-2.21727 9.88637,-15.47641 20.16784,-30.72066 29.75994,-46.37935 4.79469,-7.82889 10.84368,-16.04864 13.47763,-24.905 0.49954,-1.67768 1.11261,-3.2801 0.90825,-5.06479 -0.1762,-1.52262 -2.46501,-3.91672 -2.31969,-4.9732 0.21526,-1.56615 3.35965,-2.87383 4.83011,-4.51978 5.10804,-5.71954 6.39141,-12.5264 7.97813,-19.79758 1.72569,-7.91323 3.81741,-16.22094 4.98179,-24.21488 z m 19.30228,-47.99719 c 7.53036,-1.62236 16.08613,2.70425 22.38308,6.19655 4.15437,2.30433 15.24146,7.12155 15.66834,12.76491 -0.11535,-1.53077 -10.31144,-0.57585 -12.32686,-0.52597 -8.61391,-1.86541 -17.80184,-4.38012 -25.839,-8.09732 -2.92732,-1.35394 -6.36507,-2.67976 -5.29877,-6.15484 0.69935,-2.28346 3.2788,-3.72355 5.41321,-4.18333 z m -8.73471,111.0228 c -4.76017,-0.27386 -22.04249,-0.0862 -13.34502,-8.71489 5.445,-5.40395 15.47216,-6.57652 22.7146,-6.60554 2.59489,-0.01 5.15254,0.19316 7.73017,0.45797 0.70663,0.0843 1.41416,0.16776 2.12078,0.2521 2.15984,-0.42985 2.83376,0.46431 2.02269,2.68067 0.38692,1.2968 1.00726,8.98785 -0.1317,10.06973 -1.51134,1.43465 -6.32328,0.80166 -8.09711,0.94041 -4.35327,0.34007 -8.64569,0.94585 -13.01441,0.91955 z m 25.27588,65.37166 c -12.52305,1.8654 -25.0252,4.24499 -37.72354,4.44359 1.89553,-9.25628 4.1035,-18.49171 7.55397,-27.30907 2.20616,-5.6343 6.21066,-17.79978 13.92903,-17.20125 6.16071,0.47791 13.35047,11.03462 15.06798,16.42679 2.23886,7.02995 1.17256,16.32886 1.17256,23.63994 z m 32.16138,-140.69696 c -0.24977,1.28229 -5.87007,3.58934 -7.0726,4.28762 -8.66931,5.03758 -16.39222,12.50555 -21.58109,20.99281 -0.57674,-3.27556 -0.48501,-9.48753 -3.23067,-11.81452 -4.83193,-4.09627 -3.8392,5.08021 -4.41685,7.8833 -0.54133,2.62898 0.13169,2.20366 -2.13532,2.43763 -2.01088,0.20677 -7.14253,-3.55941 -8.9981,-4.50798 -5.12892,-2.62354 -10.04441,-5.47832 -14.9717,-8.45644 4.0817,-6.74338 16.11883,-9.83848 22.97345,-12.53547 9.85095,-3.87681 19.56112,-5.86011 29.98519,-7.46525 1.74385,0.90686 1.97001,-1.13356 3.27245,-1.59062 0.0727,-0.1052 0.0972,-0.19407 0.10081,-0.27659 1.53042,2.2753 6.44681,9.13476 6.07443,11.04551 z m 12.75283,90.87064 c 4.85191,22.29234 6.05989,45.48338 12.1879,67.50548 5.82647,20.93478 10.9999,41.77616 17.73099,62.42709 3.87735,11.89523 7.47677,23.90927 12.65929,35.33203 3.61395,7.96674 6.48223,24.9576 15.28687,28.68659 5.7638,2.44035 8.31963,0.27931 7.70383,-5.56538 -0.53405,-5.08565 -3.17072,-8.2805 -5.34781,-12.67331 -0.7584,-1.52987 -3.22704,-5.84742 -2.9582,-7.47069 0.33424,-2.01775 0.84741,-1.80101 2.95184,-2.79856 4.46771,-2.11932 8.92271,-3.55487 13.68016,-4.78094 -1.91914,2.9763 -5.75289,7.23399 -6.0608,10.87411 -0.25522,3.00442 1.9028,8.51448 4.88734,9.66709 2.82104,1.08914 6.13981,-1.20793 8.55487,-2.60903 2.79561,-1.62236 5.46044,-2.07398 8.53761,-3.22568 -3.92185,5.65152 -10.34686,10.15316 -7.59575,17.92673 2.93458,8.2923 12.03985,1.51083 17.86269,0.57314 -1.66302,6.42507 -9.0417,13.75066 -14.34864,17.32639 -3.5631,2.39955 -7.42955,4.56421 -11.25331,6.5067 -1.48046,0.75178 -3.42503,1.21156 -4.78469,2.10753 -0.5168,0.34098 -1.38691,1.78651 -1.85648,2.01323 -6.60485,3.18941 -15.61294,4.00377 -22.79907,5.53635 -7.91727,1.68857 -14.73192,2.1021 -22.88262,1.71033 -6.7429,-0.32374 -14.21331,-4.46626 -19.84814,-7.94496 -4.28424,-2.6444 -4.91003,-5.87643 -6.24335,-10.54493 -2.2107,-7.7373 -4.18979,-15.52448 -6.29968,-23.28807 -1.81923,-6.69351 -2.66573,-13.12403 -3.89823,-19.91548 -2.61124,-14.39271 -3.81377,-29.01305 -6.61484,-43.38038 -2.78199,-14.2712 -3.71204,-28.7283 -4.48225,-43.316 -0.37057,-7.02632 -1.51497,-14.19321 -1.86283,-21.08259 -0.28338,-5.60347 -0.1871,-11.24321 -0.15713,-17.00628 0.0227,-4.05093 -1.41325,-8.09914 -1.31515,-12.16457 0.0863,-3.59478 0.41598,-6.83226 0.0363,-10.46331 -0.80925,-7.73639 -1.44231,-15.38119 -2.05084,-23.12938 -1.18618,-15.10278 -4.67752,-30.00606 -6.06988,-45.04446 -0.60127,-6.50397 6.53672,-12.74042 11.37228,-16.52836 5.15436,-4.03642 9.28966,-9.70518 14.96172,-12.88281 2.1008,26.08301 4.74564,52.0318 10.31598,77.62238 z m -85.41793,278.8656 c -5.59213,2.49295 -11.18245,4.99043 -16.77732,7.47884 -4.11258,1.83004 -9.50854,5.59077 -14.02893,5.25161 3.21341,-4.35291 5.23792,-9.33156 8.66477,-13.55932 3.4214,-4.22142 6.24517,-8.70582 9.3387,-13.16665 4.06626,4.9596 8.22245,9.50386 12.80278,13.99552 z m 1.18982,-21.8888 c 8.46042,-4.46173 20.4812,-12.94174 30.39754,-11.34205 7.14253,1.15171 15.23238,6.38155 19.54569,12.14009 2.02269,2.70062 4.04629,5.22077 6.36143,7.86788 2.12169,2.42584 3.21069,2.11116 1.35512,4.6413 -1.42687,1.94611 -4.79014,3.26377 -6.97904,4.01555 0,-4.25769 1.32423,-8.52626 -3.79198,-8.10548 -2.01814,0.16596 -4.37235,0.6484 -6.38413,0.97669 -1.73387,0.28294 -2.7384,1.03563 -4.21613,1.38386 -1.57674,0.3709 -3.46046,-0.0653 -5.09442,0.0626 -2.81468,0.22037 -5.06716,1.3485 -7.7329,1.93886 -5.51493,1.22154 -10.17065,2.91101 -15.54118,4.71566 -2.45683,-3.7562 -4.52039,-8.27053 -7.85824,-11.34115 -3.73112,-3.43245 -5.32238,-4.1797 -0.0618,-6.95378 z M 360.4207,14.750451 c 0.81198,-0.08525 1.74022,-0.590364 2.36692,-1.643224 -1.09808,1.842732 -1.74476,1.926163 -2.36692,1.643224 z m -25.36035,2.934587 c 0.98365,0.178651 1.95548,0.397203 2.76928,0.77899 0.80108,0.375438 1.23341,0.803475 1.6612,1.178913 -0.19981,-0.08706 -0.41598,-0.180464 -0.65939,-0.282032 -1.05721,-0.441639 -2.40961,-1.238766 -3.77109,-1.675871 z M 318.1477,157.42435 c -0.0663,-0.0898 -0.12897,-0.1723 -0.19255,-0.25392 0.0636,0.0816 0.12625,0.16415 0.19346,0.25392 z m -3.28789,0.47792 c -0.3088,-0.11336 -0.57129,-0.30017 -0.77837,-0.57223 0.20708,0.27206 0.46957,0.45887 0.77837,0.57223 0.20527,0.0744 0.43233,0.11698 0.67665,0.12877 -0.24432,-0.0118 -0.47138,-0.0544 -0.67665,-0.12877 z m -1.31515,-2.69155 c -9.1e-4,0.39085 0.0291,0.73455 0.089,1.03654 -0.06,-0.30199 -0.0899,-0.64569 -0.089,-1.03654 z m 3.98179,1.45641 c -0.0799,-0.0843 -0.15803,-0.16233 -0.23705,-0.23488 0.079,0.0725 0.15713,0.15145 0.23705,0.23488 z m -0.67755,-0.59036 c -0.12625,-0.0853 -0.2525,-0.16233 -0.38329,-0.22672 0.13079,0.0644 0.25704,0.14147 0.38329,0.22672 z M 457.48793,21.355993 c 0.18165,0.0526 0.33969,0.07527 0.48592,0.08343 -0.19891,0.01995 -0.35876,-0.01 -0.48592,-0.08343 z m 4.35146,2.915543 c -0.52951,-0.490609 -0.84286,-0.971243 -1.00362,-1.452784 0.0817,0.05078 0.17166,0.09703 0.27247,0.136936 0.15804,-0.15598 0.31517,-0.311959 0.4723,-0.468845 -0.21798,0.406271 -0.29337,0.798033 -0.12534,1.149894 0.81198,1.697635 1.80289,-0.883278 3.02722,0.393575 -0.91643,-0.11245 -2.0354,0.241224 -2.64303,0.241224 -1.41325,1.938859 -2.82649,3.878625 -4.23883,5.817484 1.91279,0.95492 2.51223,-0.223993 3.58034,1.516264 0.0518,0.08434 0.0981,0.291101 0.13897,0.564065 -0.44414,-1.268692 -1.60308,-1.024748 -3.71931,-2.080329 1.41234,-1.938859 2.82558,-3.878625 4.23883,-5.817484 z m 3.66118,4.268573 c 0.13079,-0.09794 0.20981,-0.233062 0.26067,-0.411713 0.0336,-0.119705 0.0545,-0.258454 0.0681,-0.418967 -0.0136,0.160513 -0.0345,0.299262 -0.0681,0.418967 -0.0509,0.178651 -0.12988,0.313773 -0.26067,0.411713 -0.0872,0.06529 -0.198,0.114264 -0.33787,0.147818 0.13987,-0.03355 0.25068,-0.08252 0.33787,-0.147818 z m 0.40055,-2.061284 c -0.0182,0.253013 -0.0291,0.480634 -0.0381,0.684676 0.009,-0.204042 0.02,-0.431663 0.0381,-0.684676 z m -2.09081,5.164547 c 0.0618,0.11245 0.12897,0.214018 0.20072,0.308331 -0.0708,-0.09703 -0.13987,-0.195881 -0.20072,-0.308331 z m -2.12441,7.63029 c -2.01997,-1.08188 -0.26612,-2.443978 -0.18256,-4.106246 0.007,-0.147818 0.01,-0.272964 0.0145,-0.408992 0.0136,0.401737 0.0163,0.730926 0.006,0.892346 -0.13624,2.348758 -1.8038,3.002602 1.23068,3.714484 0.20709,0.04897 0.47593,0.07436 0.78111,0.08615 -0.77566,0.05623 -1.4514,0.03627 -1.85012,-0.177744 z m 31.32396,17.455172 c -0.12625,-0.960361 4.36599,-3.056106 4.94455,-3.313654 -0.71026,0.316493 -5.06444,2.40317 -4.94455,3.313654 z m 5.10894,-8.5045 c -0.03,-0.0127 -0.0636,-0.01632 -0.0935,-0.02993 0.006,-0.07074 -9.1e-4,-0.136935 -9.1e-4,-0.205856 0.0209,0.08706 0.0491,0.167768 0.0945,0.235782 z m 2.39144,7.756343 c 0.0245,-0.104288 0.0727,-0.382693 0.12534,-0.714603 0.079,0.409899 0.16712,0.794407 0.24977,1.129943 -0.099,-0.130587 -0.21616,-0.267522 -0.37511,-0.41534 z m -3.48952,-0.05895 c -0.004,-1.627808 0.50772,-1.280482 0.8247,-1.231511 -0.28974,0.436197 -0.82651,0.517815 -0.8247,1.231511 z m -4.74019,3.574827 c 0.47229,-0.0925 0.8692,0.178651 1.23614,0.491517 -0.79836,-0.211298 -1.45412,-0.449801 -1.23614,-0.491517 z m -3.85373,9.297999 c -0.0745,0.02539 -0.14078,0.04172 -0.20981,0.06167 0.069,-0.01995 0.13533,-0.03627 0.20981,-0.06167 z m 0.38873,-0.139656 c -0.0527,0.02086 -0.0981,0.03537 -0.14805,0.0535 0.05,-0.01814 0.0954,-0.03265 0.14805,-0.0535 z m -0.72842,0.238504 c -0.0981,0.02448 -0.18983,0.04171 -0.27702,0.0535 0.0872,-0.01179 0.17892,-0.02902 0.27702,-0.0535 z m 2.96273,56.268629 c 0.19891,-0.33554 0.62761,-0.44617 1.11262,-0.49968 -0.61035,0.23307 -1.07992,0.73274 -1.19073,1.45641 -0.1208,-0.26752 -0.15168,-0.57131 0.0781,-0.95673 z m 3.53312,-10.40799 c -0.0336,-0.01 -0.0681,-0.0236 -0.10082,-0.0263 -0.98909,-0.0771 -1.41869,0.56316 -1.52587,1.54166 0.0663,-0.85336 0.3524,-1.54982 1.09082,-1.77653 -0.0382,-0.0771 -0.0718,-0.14873 -0.10808,-0.224 0.18891,0.1714 0.40599,0.33282 0.64395,0.48517 z m -1.17256,5.26974 c -0.0209,-0.11607 -0.0454,-0.24303 -0.0718,-0.37453 0.1108,0.46522 0.23705,0.92862 0.36602,1.37389 -0.12806,-0.35821 -0.23887,-0.70009 -0.29427,-0.99936 z m 0.86103,-16.20371 c -0.0808,0.0372 -0.17166,0.0698 -0.26703,0.0979 0.0954,-0.0281 0.18619,-0.0598 0.26703,-0.0979 z m 0.24159,-0.14328 c -0.0554,0.0417 -0.12079,0.078 -0.1871,0.11245 0.0663,-0.0345 0.12988,-0.0716 0.1871,-0.11245 z m -0.55494,0.25664 c -0.11353,0.0308 -0.23887,0.0562 -0.37693,0.0735 0.13715,-0.0172 0.26249,-0.0417 0.37693,-0.0735 z m 1.01634,-11.82904 c 0.0127,0.437105 0.0145,0.873303 0.0272,1.285923 -0.0699,-0.405365 -0.0772,-0.805289 -0.0272,-1.285923 z M 691.0144,675.51505 c -2.70116,-2.42856 -11.75103,-2.58999 -15.34409,-3.27194 7.77468,-7.43804 13.6184,-26.24171 -1.23341,-28.65576 -3.28789,-0.53414 -4.21795,0.73274 -4.97089,-2.99081 -0.4614,-2.28165 0.47865,-4.38374 -0.65304,-6.65633 -2.68844,-5.3967 -12.89997,-4.79455 -18.00256,-5.57081 1.21888,-4.2849 4.20886,-11.93968 -0.29518,-15.41838 -3.5531,-2.74415 -10.94904,0.91865 -14.72466,2.09393 -10.20155,3.17491 -20.56385,6.79871 -29.16867,13.19386 -3.85646,-5.20536 -7.88912,-10.34179 -11.12343,-15.97065 -3.08625,-5.3704 -4.99723,-11.30759 -7.8982,-16.77412 -2.90824,-5.48286 -5.9954,-11.94693 -10.05713,-16.65895 -3.43866,-3.99017 -8.15523,-4.38466 -12.69289,-6.28905 -11.51034,-4.82992 -21.48481,-4.55333 -33.51286,-2.76773 -12.02169,1.7856 -22.44393,8.81646 -32.6264,14.95134 -3.99633,-13.47679 -13.24057,-28.1198 -27.57105,-32.27593 -6.43137,-1.86631 -13.19788,-0.0653 -19.07703,2.86748 -7.28603,3.63469 -13.01441,9.81491 -20.13968,13.25552 8.12435,-13.90755 18.38039,-26.98986 27.30855,-40.12386 4.89642,-7.20406 11.08346,-13.63458 15.86725,-20.97468 4.87553,-7.48338 8.46768,-15.80197 12.00443,-23.97003 2.98817,7.62304 3.49407,15.64237 6.23791,23.2917 2.51951,7.02179 4.24429,14.22586 7.10893,21.13157 2.99089,7.20951 5.63301,14.32198 9.67566,21.03091 2.30606,3.82784 7.98903,15.74847 12.17882,8.10185 9.32234,6.29631 18.32045,10.09876 29.98065,9.82307 5.33782,-0.12605 11.28327,-0.29473 16.39222,-1.48996 5.18978,-1.21338 10.14795,-2.84753 15.30503,-4.01103 4.07989,-0.92046 7.8092,-3.41159 11.52033,-5.25614 4.26881,-2.12204 8.49766,-5.93719 11.79372,-9.28349 4.0808,-4.14252 8.29783,-8.13087 12.40043,-12.248 4.05991,-4.0736 3.76654,-8.23154 5.93819,-13.29451 2.267,-5.28244 3.23884,-9.95094 0.24068,-15.28235 -2.19616,-3.90492 -6.08259,-3.36716 -6.99176,-7.32196 -0.86284,-3.75166 -0.0236,-7.2884 -2.38054,-10.73083 -1.78927,-2.61175 -8.22517,-4.35835 -8.24606,-7.02542 -0.0182,-2.20366 2.27155,-4.1534 2.18072,-6.79779 -0.0817,-2.36055 -1.23705,-6.15665 -2.50588,-8.15446 -2.38417,-3.75619 -6.01538,-3.88406 -10.11072,-2.73598 -9.89455,2.77317 -19.59473,9.90468 -26.39939,17.39441 -9.32961,-25.5534 -16.6765,-51.66633 -23.50115,-77.80193 -3.0145,-11.54428 -5.37597,-23.24092 -7.29239,-35.01282 -1.89735,-11.65492 -4.77198,-23.39599 -6.05444,-35.11167 -0.7702,-7.02632 -2.93186,-13.60103 -3.94275,-20.54211 -0.8365,-5.74675 -1.39417,-11.53793 -2.21796,-17.2874 -1.82105,-12.73952 -4.35055,-25.28406 -6.31874,-37.99275 -1.08719,-7.0236 -3.5422,-13.16846 -5.43138,-19.9318 -1.62033,-5.80025 -2.5849,-10.75985 -5.29332,-16.23907 -5.16616,-10.45062 -10.47856,-23.2518 -20.5148,-29.89271 -8.92544,-5.90636 -17.58294,-10.84238 -28.46113,-12.05212 -6.38142,-0.71007 -11.52306,0.78987 -17.76278,1.47817 -5.52493,0.61032 -10.25604,3.6637 -15.64473,4.76372 0,-5.12102 -0.50045,-5.25977 4.17344,-7.08164 2.69208,-1.04923 5.31875,-2.20185 8.06078,-3.11415 2.89008,-0.96126 5.07807,-1.89986 7.54217,-3.66642 2.90823,-2.08667 1.07447,-1.42376 4.55945,-0.70281 5.49404,1.1372 3.87462,-0.18228 7.48857,-2.91917 2.10262,-1.59335 4.24883,-0.6212 6.7093,-0.30289 2.29607,0.29654 6.07442,1.31131 7.82645,-0.75541 1.33241,-1.57159 -0.11989,-4.26858 0.86193,-5.97709 1.54949,-2.69699 5.99268,-2.57366 8.36414,-4.38556 2.5958,-1.98148 2.83013,-4.21507 2.26792,-7.26211 -0.38964,-2.10935 -3.71477,-6.79507 -3.52767,-8.60969 0.12534,-1.20884 0.76203,-1.56252 1.584,-1.66136 6.49767,0.32828 6.18432,-0.65113 4.59941,-6.40876 -0.0935,0.85245 -0.14986,1.57793 -0.21435,2.20276 -0.0172,-0.89416 -0.01,-1.72938 0.21435,-2.20276 0.16894,-0.3573 0.77656,-0.58764 1.32696,-0.87511 -0.14532,0.14419 -0.297,0.2911 -0.47592,0.45615 0.27792,1.22334 0.35876,4.42183 1.53404,5.2915 0.84105,0.62301 3.79016,0.55953 4.38507,-0.48154 1.24431,-2.17464 -3.0354,-3.40796 -3.20252,-5.02217 4.91458,-0.41081 3.23794,-2.80672 0.66848,-5.2516 -0.10172,-0.67108 0.28792,-0.98848 1.17074,-0.9522 -0.43868,-0.45887 -0.98182,-0.71914 -1.52405,-0.80348 0.38328,-0.0635 0.71571,-0.17593 0.891,-0.44798 0.15349,-0.23942 0.16439,-0.56951 0.10717,-0.94041 0.0954,0.28565 0.17893,0.53051 0.23978,0.71913 4.23975,1.71124 2.06084,-7.37002 0.30245,-8.91802 0.13533,-2.51925 0.27066,-5.0385 0.40327,-7.55774 -1.20889,0.79803 -2.12986,2.04224 -2.44503,3.34085 0.0436,-1.19886 0.74296,-2.21726 2.44503,-3.34085 -2.72477,-1.19978 -2.99271,-1.34578 -0.0663,-1.60151 2.42595,2.21182 2.08717,0.37543 3.59034,-0.97578 -0.0908,0.0807 2.27336,-2.48932 2.11533,-2.09665 1.12351,-2.778611 -0.11626,-8.642345 -4.64211,-6.732505 2.45775,2.200034 -0.009,2.605398 -0.86738,4.497105 -0.0291,0.0635 -0.0518,0.13058 -0.0754,0.19678 0.0454,-0.22671 0.10718,-0.44526 0.19982,-0.64658 1.51679,-3.25834 1.87555,-0.756323 0.20708,-4.463552 -0.002,-0.0027 -0.003,-0.0054 -0.005,-0.0091 0.44141,0.223087 1.13169,0.17593 2.22705,-0.28566 1.36602,-1.667708 1.77927,-0.985752 2.51133,-3.134095 0.64123,-1.879913 0.34423,-3.162209 -0.93641,-3.861395 0.14622,0.03809 0.29245,0.08071 0.43959,0.117892 0.56585,-1.44553 -0.2198,-2.823044 -1.5295,-3.48777 -0.52861,0.865141 -1.05721,1.731189 -1.584,2.597237 0.23887,0.07708 0.47865,0.146003 0.71934,0.218552 -0.003,0 -0.005,0 -0.008,-9.07e-4 -1.67755,-0.194067 -2.35692,0.107009 -2.60851,0.881464 -0.0845,-0.347326 -0.10718,-0.68921 0.0854,-0.999355 0.20436,-0.331003 1.65394,0.159606 1.81198,-0.09975 2.59943,-4.260412 -0.14623,-7.807127 -4.32966,-9.977235 -1.58854,-0.824332 -4.72112,-0.852445 -5.28152,-2.781328 -0.39691,-1.363005 1.57765,-4.661242 1.95639,-6.278167 2.91914,-1.33852 -2.46955,-2.122044 -2.50588,-2.127485 -0.16167,1.907119 -0.0572,2.751402 1.04449,2.603584 -1.10989,0.150539 -1.20616,-0.702813 -1.04449,-2.603584 1.584,0.243037 6.25789,-0.193161 8.54942,-1.75114 3.79288,0.107916 5.74472,0.765387 8.04534,-2.523781 -2.24794,-0.933155 -4.89551,-0.430757 -6.91365,-1.86359 0.0935,0.430757 0.16984,0.821612 0.21798,1.182541 -0.17529,-0.533232 -0.55495,-0.992101 -1.06448,-1.427392 0.3297,0.282939 0.15895,0.373624 -0.23251,0.360928 0.0754,-0.100661 0.15259,-0.216738 0.23251,-0.360928 0.13624,-1.596068 1.30971,-0.945852 2.49771,-0.846097 -0.0309,-0.513281 -0.23433,-0.944945 -0.45413,-1.372981 0.21798,0.410806 0.42143,0.831587 0.45413,1.372981 0.75294,-0.478821 1.50589,-0.957641 2.25883,-1.437368 0.40963,-0.118798 0.65486,-0.284753 0.75113,-0.49333 9.1e-4,0.0036 0.002,0.0082 0.003,0.01179 3.59851,1.073718 2.50315,-6.549317 0.8474,-6.510322 -0.44414,0.01088 -0.76566,0.174117 -1.00272,0.432571 0.0509,-0.702814 0.17166,-1.446436 0.45958,-2.487507 h -0.003 0.003 c 0.16894,-0.447987 0.33606,-0.895974 0.5059,-1.343961 -0.90826,0.05804 -3.84283,-1.694915 -3.89642,0.396296 -0.0554,-0.377252 -0.20436,-0.729113 -0.4614,-1.049233 0.26249,-2.313391 -1.09899,-2.116603 -3.20887,-2.763192 -0.78382,-0.240317 -1.64848,-1.741164 -2.53131,-1.110899 -1.32696,0.946758 -0.5277,1.838198 0.32425,2.512899 -0.12534,0.786245 -0.50136,1.414696 -1.12896,1.884448 -0.0954,-0.08978 -0.1871,-0.1587 -0.27793,-0.228528 0.58673,-0.343698 1.08173,-0.890533 1.40689,-1.65592 -2.71296,-2.146529 -3.85828,-0.741808 -5.94545,0.984846 0.83105,0.691932 1.79472,1.06465 2.71751,1.102738 -0.0472,0.101568 -0.0936,0.204043 -0.13534,0.325561 -1.04631,-0.130587 -1.90734,-0.606687 -2.58217,-1.428299 2.21706,-1.83457 2.01724,-2.959072 -0.67847,-4.0473 -0.91189,-0.367277 -1.48863,0.450708 -2.61578,0.01814 -0.55948,-0.214925 -0.96366,-1.190703 -1.50952,-1.513544 -4.07989,-2.414958 -8.98085,-1.040164 -13.32595,-1.61239 0.54405,-0.06983 1.03088,-0.137843 1.40054,-0.186813 -0.43052,-1.498127 -1.59672,-2.146529 -2.82377,-2.602678 0.002,-0.853352 0.003,-1.70761 0.002,-2.560962 -0.17348,-0.03899 -0.34059,-0.05713 -0.50226,-0.06167 0.28428,-0.2249 0.45322,-0.530511 0.41325,-1.051046 -1.04903,0.379066 -1.93731,0.09975 -2.51133,-0.659285 1.14077,1.457319 3.36328,0.694652 4.04175,-1.174379 0.71116,-1.95881 -0.81289,-3.274658 -2.13895,-4.728349 0.0318,-1.396559 -0.56221,-1.898957 -1.32878,-2.033172 1.38328,-2.716942 1.6939,-1.369353 0.2089,-4.767344 -0.12261,-2.289813 -2.06538,-1.458225 -3.37599,0.0127 0.13805,-0.337351 0.27974,-0.68377 0.41417,-1.044699 -1.03088,-0.06983 -2.06084,-0.139656 -3.09171,-0.211297 0.26248,0.836121 0.84014,2.325179 0.0808,3.035248 0.50499,-0.726392 0.14532,-2.313391 -0.0808,-3.035248 -1.26248,-0.703721 -2.52405,-1.407442 -3.78653,-2.112976 0.10627,0.225807 0.39691,1.075532 0.75658,2.037706 -0.97092,-1.352122 -1.76292,-2.190058 -3.08625,-3.582082 -0.64577,-0.679236 -3.17436,-3.939384 -3.87554,-4.14252 -4.28606,-1.2423936 -7.52763,7.13968 -12.75646,5.992507 -3.08354,-0.676515 -1.64395,-1.474549 -4.55673,-0.90867 -1.59581,-2.072167 -12.00625,1.186168 -12.40588,3.157674 0.19528,-0.0526 0.34423,-0.07436 0.46503,-0.07799 -1.17347,0.420781 -2.19435,1.068277 -3.33058,1.506288 -2.85011,1.09911 -1.15439,1.385677 -4.38961,-0.46431 -1.10353,-0.631172 -1.51133,-0.433477 -1.94094,-0.491516 1.39327,-0.625731 2.06447,-4.956877 2.08445,-6.501254 0.05,-3.6899984 -0.43778,-3.0425029 1.00181,-5.6887099 -1.33151,-0.020858 -2.26883,-0.1342148 -2.96819,0.1822781 0.19982,-0.6275446 0.34332,-1.2433001 0.33969,-1.8391048 0.72025,-1.9515549 0.0854,-4.25043591 -2.14349,-4.7936429 -3.37144,-0.82251875 -4.03266,4.0173739 -1.58944,4.8099664 -2.33695,-0.758132 -1.39963,-3.8196792 -4.58125,-4.23411258 1.16711,-0.0598525 1.8919,0.16051358 2.97908,1.49721988 0.36058,-0.7254851 0.71934,-1.45006335 1.07992,-2.17554847 -2.53313,-0.26480207 -3.70387,-0.47972704 -5.74927,0.71006856 -2.0018,0.35730141 -3.41323,1.80736481 -4.92366,3.22296761 -4.11531,3.8550466 -7.8101,7.6175941 -11.59844,11.8000161 -1.94639,-3.99833 -4.09533,-6.9093395 -7.25334,-2.43491 -2.85193,4.038232 -5.15981,9.619933 -6.64208,14.315635 -2.96183,-1.359378 -1.71297,-1.80283 -2.95547,-4.004678 1.29154,2.144716 -0.0218,2.638046 2.95547,4.004678 0.29518,-0.936782 0.59218,-1.874472 0.88827,-2.811255 -2.59398,-2.955445 -2.48408,-5.891846 -5.29241,-9.043172 -0.31062,1.010238 0.58401,2.449419 0.74023,3.359903 0.17439,1.009331 -0.94459,1.710332 -0.69027,2.795839 1.04903,-0.383601 1.29245,-0.152352 1.32605,0.267522 -0.0363,-0.418967 -0.28338,-0.648402 -1.32605,-0.267522 -0.41599,-1.772905 0.61761,-2.715128 0.0409,-4.694796 -0.23343,-0.799847 -0.5722,-1.38477 -0.98092,-1.950648 1.78654,-2.988092 -3.99179,-5.058445 -5.33692,-3.2801 -0.16893,0.223994 -0.28337,0.432571 -0.37329,0.633893 -2.25611,-1.014772 -2.95274,1.144453 -4.00541,2.765912 -0.24978,0.506933 -0.50045,1.014772 -0.75113,1.522612 -1.32787,1.090948 -2.56038,3.373506 -3.56037,4.867098 -2.13894,3.193041 -3.03539,7.866073 -5.6539,10.526789 0.0881,-1.713958 1.0227,-5.513687 -2.05538,-3.981099 1.01634,-0.506026 1.16257,-1.120875 0.93913,-1.833664 0.19165,0.107916 0.39873,0.205856 0.63942,0.28566 0.43233,0.04262 0.86647,0.08434 1.29971,0.126053 -0.0545,-2.426748 -1.64576,-4.021908 -3.52494,-5.312365 0,0.633893 -0.02,1.285922 0.0209,1.910746 -0.01,-0.02267 -0.0209,-0.04444 -0.0309,-0.06711 -0.8247,-1.97604 -0.47502,-2.558242 -1.18982,-3.164022 0.28065,0.06711 0.60217,0.115171 0.99727,0.134215 -2.29971,-3.887694 -5.356,-4.50889 -9.58211,-3.413408 0.28791,0.06801 0.58945,0.126053 0.89645,0.183185 -0.47775,9.07e-4 -0.94187,0.08615 -1.37511,0.297449 -1.64122,0.798941 -4.06899,5.391261 -5.20794,6.983701 -4.00814,5.604373 -5.87461,12.47109 -7.97268,18.948765 -0.58946,1.822781 -1.48409,6.094982 -3.76291,6.706203 -2.64847,0.710975 -5.45408,-3.603847 -7.78558,-5.045749 -7.45951,-4.614992 -11.16974,3.670955 -12.31868,10.244757 -1.71388,2.908288 -1.31879,5.150037 1.15348,6.527552 -0.69209,-1.000262 -1.01089,-2.065819 -1.14168,-3.164929 0.32788,1.868125 1.88645,2.51562 2.16711,3.315467 0.1544,0.438919 0.36875,3.101449 0.36421,3.636494 1.27428,0.951293 1.36965,1.654107 0.287,2.108442 -0.66211,0.452521 -1.28245,0.958547 -1.86101,1.51717 -1.78745,1.884448 -1.7702,4.497101 -3.40597,6.329858 -1.8483,2.073074 -3.54583,1.157149 -4.41867,4.565115 -1.49499,5.838342 2.18799,14.653893 8.81645,15.212516 -0.78655,2.298881 -1.8047,4.630404 -2.39235,6.988234 -0.78019,3.13681 -0.72569,3.45421 0.75295,6.455 -11.02442,-1.63869 -10.16249,10.03165 -3.87917,15.76389 1.48864,1.35847 3.11896,2.20457 5.04083,2.80672 1.38963,0.43619 5.58669,0.19316 6.58668,1.51173 2.10625,2.78042 -2.5958,6.39515 -3.01178,9.4975 -0.0427,0.3174 -0.06,0.86242 -0.0463,1.49541 -1.73568,2.12476 -1.65031,2.3007 0.83015,4.28762 1.35875,1.75023 5.55762,1.33126 6.83463,3.00532 1.96365,2.57638 -2.41597,6.72343 -0.22071,9.73329 1.74567,2.39229 3.56673,0.90141 6.36143,1.91528 1.3533,0.61757 2.7057,1.23695 4.05628,1.85905 0.63305,-0.43982 1.32514,-0.71641 2.07809,-0.82795 1.57855,0.7944 0.0718,2.19368 2.06174,2.66162 1.0336,0.32647 3.42231,1.56523 4.46681,0.92318 -1.48137,0.91048 -2.47591,3.16311 -3.32604,5.63883 -0.80925,1.32401 -1.55675,2.78133 -1.25884,3.875 -0.49863,1.51626 -1.00907,2.89922 -1.61852,3.8623 3.44048,0.52416 3.0354,3.76436 5.41685,5.54361 3.21704,2.75413 3.75292,0.1977 2.99271,-1.14536 0.32152,0.16324 0.65212,0.37544 0.99363,0.61757 0.0645,0.0453 -0.6267,1.68131 0.0518,2.0631 0.95004,0.53595 0.94913,-0.002 1.93731,-0.0127 0.93006,-0.0109 2.27882,-1.40654 3.41505,-1.52352 0.6049,-0.0617 2.39235,0.76538 2.76291,0.51963 1.02997,-0.68287 0.95004,-1.43193 0.5495,-2.33788 l 0.46049,0.92046 c 1.10898,2.89559 1.66665,2.24356 3.34783,1.41379 -0.45413,0.22399 1.31788,-1.09821 1.68209,-0.9921 -0.82833,-2.29526 -4.11168,-2.05403 -6.13436,-2.62807 1.28155,0.36365 3.36236,0.37725 4.54128,0.88509 1.97364,0.84972 1.34967,1.71396 3.68661,1.97876 0.98365,0.11154 4.99633,-0.9785 5.70386,-1.6931 0.0672,-0.068 0.11444,-0.15054 0.15077,-0.24213 0.36421,-0.5813 0.72842,-1.1635 1.09081,-1.7457 1.48319,0.1723 -0.12261,2.45214 2.20525,1.54528 1.73841,-0.67923 0.89191,-1.62327 0.33878,-2.65346 -0.18074,-0.33735 -0.3851,-0.57767 -0.59945,-0.75088 2.40234,0.57495 5.25881,3.8088 8.53853,2.90285 1.85012,-0.51056 1.95275,-1.7729 3.30878,-2.95363 1.81197,-1.57702 2.37327,-1.33399 4.56762,-2.09665 1.32878,-0.4625 2.74384,-1.48271 4.08171,-1.72031 2.178,-0.38723 1.57673,-0.14691 3.38144,0.77083 1.07901,0.54865 1.69299,1.57793 3.05537,1.77744 1.24431,0.18137 3.19798,-1.24965 4.20523,-0.85607 2.74021,1.07099 2.04267,4.91697 2.19798,7.45254 -13.87089,-4.41458 -30.08419,2.64167 -40.293,12.33143 -2.76836,2.62717 -4.57943,5.74222 -7.03899,8.59882 -2.66936,3.09963 -5.18614,4.50798 -5.56125,8.92437 -0.32334,3.80789 1.39417,6.09408 0.0381,9.75233 -1.30062,3.50682 -2.71932,6.64454 -3.67026,10.30008 -4.5431,17.45789 -4.68388,35.58686 -8.05079,53.28598 -3.11532,16.37692 -7.56397,30.96642 -14.89451,45.97852 -3.39869,6.95922 -6.2479,11.21963 -13.70196,14.15512 -6.02992,2.37325 -10.44405,-0.73818 -13.39134,-6.15211 -7.9309,-14.57046 -9.05895,-29.55445 -8.96268,-45.80622 0.0454,-7.80713 0.93641,-15.61516 1.68845,-23.37695 0.78019,-8.04472 0.19528,-15.56075 -0.36421,-23.59368 -1.12261,-16.10577 -4.79741,-29.91901 -10.32688,-45.06623 -2.62123,-7.18412 -4.83283,-14.18777 -11.14704,-18.86171 -3.53675,-2.61718 -7.08894,-5.89094 -11.23514,-8.15445 -3.31695,-1.81099 -5.2915,-3.44696 -9.07439,-4.25769 -2.48772,-0.53323 -4.75472,-1.35666 -7.15706,-2.13021 -5.66844,-1.82278 -12.22514,-2.38684 -18.1715,-2.36689 -13.88361,0.0472 -29.12053,4.72109 -41.61815,10.71451 -6.22246,2.98446 -12.9799,7.42806 -17.07886,13.08956 -1.69117,2.33697 -2.84284,4.92786 -3.99179,7.55684 -1.3751,3.14225 -0.94277,3.7172 -3.85464,3.60747 -1.82378,-0.0689 -3.86372,-1.75658 -5.95272,-1.84636 -2.28699,-0.0979 -3.9609,0.69828 -6.08986,1.28864 -2.70206,0.74907 -5.24246,1.42014 -7.64479,2.97268 -5.83011,3.76436 -10.76103,9.76412 -15.21603,14.9985 -8.15615,9.58094 -15.534829,20.31812 -23.165095,30.0768 -7.514009,9.60814 -16.64199,18.13531 -28.313091,22.49094 -4.452276,1.66227 -9.382294,1.99781 -13.92812,3.34177 -1.994532,0.58946 -4.410495,2.15469 -6.500394,2.12748 -3.284257,-0.0417 -3.031762,-1.65047 -4.168899,-4.25678 -1.351487,-3.09601 -3.306964,-5.50643 -5.750175,-7.81892 -10.840045,-10.26289 -24.32130235,4.94328 -23.48479776,16.65714 0.48955046,6.84405 5.61938536,11.35838 5.43864216,18.07547 -0.169844,6.28451 0.2043578,12.6588 2.4459358,18.6232 2.5158718,6.68897 8.7029178,13.62642 14.1588168,18.17703 5.054449,4.21597 11.385,5.11104 17.75188,5.81476 2.91823,0.32193 5.946358,1.1898 8.768312,1.13901 2.41778,-0.0444 4.61667,-1.02293 7.085312,-0.92318 4.187065,0.16868 6.431367,0.14147 10.355037,-1.34487 2.910055,-1.10183 5.535826,-1.71395 8.704734,-1.64231 0,6.67809 0.423248,13.20927 0.997266,19.86469 0.07538,0.87874 0.683009,3.1613 0.278835,3.94482 -0.498633,0.96671 -1.090817,0.32919 -1.712064,1.02475 -1.482276,1.65864 -2.556744,2.473 -3.666633,4.6295 -3.044477,5.9118 -3.976349,12.5246 -2.790165,19.11654 0.930963,5.16817 3.96999,7.29747 3.251559,12.78848 -0.844679,6.45047 -2.415963,13.03516 -2.719321,19.52825 -0.145321,3.09782 -0.181651,5.43661 -0.837413,8.44102 -0.378743,1.74388 -1.653027,4.88523 -1.550394,6.64816 0.06449,1.08914 1.21888,1.57159 1.220697,2.56913 0.0027,0.86967 -1.002716,0.7545 -1.071743,1.49994 -0.210716,2.249 -0.333331,4.2858 -0.285193,6.5475 0.06358,3.05883 -0.235238,6.09861 -0.120798,9.15744 0.08719,2.32971 -0.455037,7.84521 2.159835,6.93654 -0.697541,1.64595 -0.882826,3.23204 -0.951853,4.81178 -0.03542,-0.15326 -0.05086,-0.31014 -0.03724,-0.46975 0.159853,-1.82369 0.21344,-2.51199 0.989092,-4.34203 l -1.492266,0.51872 c -0.912798,2.35511 0.207991,4.66215 0.45867,7.00547 -0.0082,0.23488 -0.01635,0.46884 -0.03088,0.70553 -0.210716,3.40434 0.04632,6.73704 0.300633,10.13322 0.580376,7.75453 0.853761,16.39868 2.950926,23.36697 2.298799,7.63754 1.564019,17.23934 2.450477,25.65134 1.014523,9.62809 2.659377,19.10111 3.884615,28.69293 1.09445,8.56526 1.622147,17.85873 3.499514,26.19999 1.539495,6.83135 2.841936,13.48405 3.667541,20.66454 1.142587,9.95728 4.776523,17.54223 8.775578,26.58903 1.691174,3.82875 1.807431,3.76799 -1.296991,6.56473 -1.300623,1.17166 -2.403247,2.54192 -3.728394,3.68637 -2.653019,2.29344 -5.551266,3.62924 -9.03534,4.04186 -8.576669,1.01659 -17.24144,4.06544 -22.059743,11.45904 -4.656633,7.14784 -1.639403,15.52357 1.845578,22.80562 -4.599413,0.39086 -17.037991,0.10973 -14.127936,8.48818 1.989083,5.72861 12.595707,3.8097 17.280496,3.87228 6.845532,0.0916 13.739202,-0.24395 20.524789,-0.33735 3.088982,-0.0426 3.404147,-0.36275 6.412293,0.81526 2.83467,1.10909 4.998138,1.23151 8.065322,1.02928 3.266091,-0.21401 6.530363,0.26662 9.695643,-0.20313 3.98997,-0.59127 6.47224,-1.09004 10.48038,-0.38088 2.89733,0.51237 5.21975,0.26027 8.11073,-0.12061 3.20433,-0.42441 6.23881,-0.16868 9.54487,-0.25755 7.722,-0.20676 15.38496,-0.0617 23.11241,0.0245 7.51129,0.0834 15.02802,-0.94222 22.48753,-0.60578 13.00897,0.58674 26.24954,0.0526 39.31845,0.3564 6.0281,0.14056 10.68473,3.64828 16.72736,3.28735 6.14073,-0.36637 12.36592,-0.42259 18.45942,-1.28048 10.49218,-1.47818 20.60199,-3.56939 31.26129,-4.11441 6.73745,-0.3437 12.65928,2.55643 18.99801,4.37831 2.29698,0.65928 4.36326,0.35004 6.51038,0.83974 2.02633,0.46159 4.10442,1.7847 6.24427,2.33335 5.06626,1.29861 9.90817,1.79285 14.36045,1.91256 0.57674,1.06646 1.24159,1.19705 1.99544,0.39085 0.30608,-0.17321 0.61216,-0.34732 0.91825,-0.52053 1.4196,-0.18863 2.43231,-0.82887 3.92276,-0.92318 2.29607,-0.14691 4.64664,0.16595 6.77741,-0.039 4.46227,-0.42985 8.65115,-0.71188 13.58571,-0.20495 2.9264,0.30108 5.48769,-0.12424 8.36868,-0.0707 -0.0327,-9.1e-4 3.95273,0.77717 4.04265,0.74181 0.35331,-0.13694 0.91098,-1.12088 1.14077,-1.16441 -0.0827,-0.94222 0.20072,-1.36754 0.85194,-1.27594 0.52225,-0.11336 0.86648,0.1596 1.03269,0.81798 -0.15622,0.019 1.24159,0.72548 1.34059,0.7409 0.0808,0.0127 3.68116,-0.41353 3.93457,-0.50875 1.03269,-0.38722 1.47228,-1.51082 2.29607,-1.67949 0.97547,-0.19951 1.55766,0.87693 2.40325,0.83158 1.86465,-0.10066 1.64485,-0.93134 3.07717,-1.18979 5.03084,-0.90686 11.19064,0.27206 16.38677,0.28022 5.17889,0.009 10.32779,-0.46522 15.31412,-0.68377 6.13074,-0.27025 12.13522,0.89325 18.31228,0.0671 5.8746,-0.78624 11.75193,-1.12812 17.67014,-1.37751 12.36955,-0.52144 25.06334,0.0299 37.31755,-1.42467 12.76101,-1.51354 25.73455,-9.1e-4 38.51463,-0.22853 13.4749,-0.24032 27.02246,-0.36274 40.49282,-0.91502 13.40678,-0.54955 26.75906,-2.14562 40.11316,-2.46665 3.39779,-0.0816 6.73382,-0.89144 10.11798,-1.13719 3.09897,-0.2249 6.14618,0.26752 9.26967,-0.005 5.68932,-0.49786 10.86366,-0.11607 16.58114,-0.20313 6.39413,-0.0979 12.6057,-1.07372 18.96622,-1.46548 6.42864,-0.3963 12.79643,0.51147 19.1733,-0.75723 3.48589,-0.69374 9.9881,-5.46834 5.54037,-9.46848 z"
             id="react-path-6"
             style="fill:#056676;fill-opacity:1" />
          <path
             d="m 438.56117,106.70979 c -0.009,0 -0.017,0.001 -0.024,0 -0.033,0.037 -0.066,0.077 -0.097,0.112 z"
             id="react-path-7" />
          <path
             d="m 491.81753,77.265787 c 0.80777,-2.807948 -1.23751,-4.819164 -2.60833,-7 -0.80677,4.948075 -3.28479,4.733869 2.60833,7"
             id="react-path-8" />
          <path
             d="m 343.4641,182.68229 c 0.021,0.057 0.048,0.107 0.065,0.167 0.023,-0.099 -0.004,-0.15 -0.065,-0.167"
             id="react-path-9" />
          <path
             d="m 321.13951,178.97645 c 0.18368,0.41324 0.58657,3.27285 0.8769,3.28703 2.59091,0.12294 -0.56626,-4.71495 -2.22272,-4.99769 -2.39454,1.54611 1.40253,1.83832 1.34582,1.71066"
             id="react-path-10" />
          <path
             d="m 321.00067,162.26579 c -0.17113,-2.18498 -0.90642,-2.46201 -3,-1.39964 0.62567,1.37394 1.37076,1.1764 3,1.39964"
             id="react-path-11" />
          <path
             d="m 292.00067,108.76681 c 1,0.16667 2.00091,0.33333 3,0.49898 -0.587,-1.33231 -1.17491,-2.66667 -1.76191,-4 -0.413,1.16769 -0.82509,2.33435 -1.23809,3.50102"
             id="react-path-12" />
          <path
             d="m 312.52735,547.75967 c 10e-4,-0.002 10e-4,-0.004 0.003,-0.006 -0.073,0.028 -0.084,0.034 -0.003,0.006"
             id="react-path-13" />
          <path
             d="m 108.51283,275.41393 c 2.1179,-3.54159 6.13399,-7.91618 10.70568,-6.44437 4.27092,1.37653 5.45324,6.9752 7.2938,10.49683 3.58026,6.84725 4.69504,-0.50452 5.48836,-4.66042 -0.64654,-8.32269 -3.88463,-21.87021 -14.83884,-20.4347 -8.33204,1.09342 -15.52679,14.47761 -13.94016,22.39106 1.33269,6.65216 3.58297,1.5081 5.29116,-1.3484"
             id="react-path-14"
             style="fill:#056676;fill-opacity:1" />
          <path
             d="m 424.26745,118.55283 c -4.09045,-1.46029 -4.08698,2.96044 -4.24464,6.28316 -0.14466,3.05309 0.32831,10.21465 4.18141,11.30524 3.83924,1.08781 4.20133,-5.23705 4.79645,-7.79442 -0.89484,-3.03548 -1.39034,-8.60054 -4.73322,-9.79398"
             id="react-path-15"
             style="fill:#056676;fill-opacity:1" />
          <path
             d="m 429.00067,111.91961 c -3.00301,-2.65419 -5.00752,-3.46724 -8.84276,-1.75282 -1.97445,0.88217 -4.79428,2.80105 -5.10332,5.22101 -0.96468,7.53155 11.30001,-1.92272 13.94608,-3.46819"
             id="react-path-16"
             style="fill:#056676;fill-opacity:1" />
          <path
             d="m 429.62687,157.03837 c 6.99786,1.80794 7.44451,-7.75696 -0.33732,-7.77258 -5.20658,-0.0101 -3.57135,6.76348 0.33732,7.77258"
             id="react-path-17"
             style="fill:#056676;fill-opacity:1" />
          <path
             d="m 376.13245,127.30432 c -2.61136,0.38177 -3.53451,2.02094 -2.9746,4.63675 0.64649,3.01797 2.28294,3.04298 5.21142,3.32472 7.05959,0.0222 2.45232,-8.64623 -2.23682,-7.96147"
             id="react-path-18"
             style="fill:#056676;fill-opacity:1" />
          <path
             d="m 438.096,111.10727 c 0.64604,1.79142 4.15404,2.60064 5.98786,1.91745 2.18085,-0.8127 2.634,-2.78752 0.66542,-4.60154 -1.68523,-1.55325 -4.01005,-1.14386 -6.11983,-0.99957 0.0701,0.67797 -0.93584,2.56934 -0.53345,3.68366"
             id="react-path-19"
             style="fill:#056676;fill-opacity:1" />
          <path
             d="m 218.56179,315.26579 c 3.33731,-0.005 0.1881,-5.64908 -2.56112,-6 0.0579,1.74624 -0.0569,6.00463 2.56112,6"
             id="react-path-20" />
        </g>
      </g>
    </g>
  </g>
</svg>
