<?xml version="1.0" encoding="UTF-8" standalone="no"?>
<svg
   xmlns:osb="http://www.openswatchbook.org/uri/2009/osb"
   xmlns:dc="http://purl.org/dc/elements/1.1/"
   xmlns:cc="http://creativecommons.org/ns#"
   xmlns:rdf="http://www.w3.org/1999/02/22-rdf-syntax-ns#"
   xmlns:svg="http://www.w3.org/2000/svg"
   xmlns="http://www.w3.org/2000/svg"
   xmlns:sodipodi="http://sodipodi.sourceforge.net/DTD/sodipodi-0.dtd"
   xmlns:inkscape="http://www.inkscape.org/namespaces/inkscape"
   sodipodi:docname="welcome-2.svg"
   inkscape:version="1.0 (4035a4f, 2020-05-01)"
   id="svg8"
   version="1.1"
   viewBox="0 0 270.93333 297"
   height="1122.5197"
   width="1024">
  <defs
     id="defs2">
    <linearGradient
       osb:paint="solid"
       id="linearGradient868">
      <stop
         id="stop866"
         offset="0"
         style="stop-color:#056676;stop-opacity:1;" />
    </linearGradient>
    <linearGradient
       osb:paint="solid"
       id="linearGradient860">
      <stop
         id="stop858"
         offset="0"
         style="stop-color:#000000;stop-opacity:1;" />
    </linearGradient>
    <linearGradient
       osb:paint="solid"
       id="linearGradient854">
      <stop
         id="stop852"
         offset="0"
         style="stop-color:#000000;stop-opacity:1;" />
    </linearGradient>
  </defs>
  <sodipodi:namedview
     inkscape:window-maximized="0"
     inkscape:window-y="0"
     inkscape:window-x="0"
     inkscape:window-height="900"
     inkscape:window-width="1440"
     units="px"
     showgrid="false"
     inkscape:document-rotation="0"
     inkscape:current-layer="layer2"
     inkscape:document-units="mm"
     inkscape:cy="637.19759"
     inkscape:cx="708.07472"
     inkscape:zoom="0.40359553"
     inkscape:pageshadow="2"
     inkscape:pageopacity="0.0"
     borderopacity="1.0"
     bordercolor="#666666"
     pagecolor="#ffffff"
     id="base" />
  <metadata
     id="metadata5">
    <rdf:RDF>
      <cc:Work
         rdf:about="">
        <dc:format>image/svg+xml</dc:format>
        <dc:type
           rdf:resource="http://purl.org/dc/dcmitype/StillImage" />
        <dc:title></dc:title>
      </cc:Work>
    </rdf:RDF>
  </metadata>
  <g
     id="layer1"
     inkscape:groupmode="layer"
     inkscape:label="Layer 1">
    <rect
       ry="7.0527782"
       rx="8.1452036"
       y="5.6508965"
       x="57.452"
       height="102.26529"
       width="202.14915"
       id="rect850"
       style="fill:none;fill-opacity:1;fill-rule:evenodd;stroke:#056676;stroke-width:0.979043;stroke-miterlimit:4;stroke-dasharray:none;stroke-opacity:1" />
    <g
       style="opacity:1"
       transform="scale(1,-1)"
       id="g907">
      <path
         id="path909"
         d="M 67.642998,-107.83641 H 248.0243 v 0.32654 H 67.642998 Z"
         style="color:#000000;font-style:normal;font-variant:normal;font-weight:normal;font-stretch:normal;font-size:medium;line-height:normal;font-family:sans-serif;font-variant-ligatures:normal;font-variant-position:normal;font-variant-caps:normal;font-variant-numeric:normal;font-variant-alternates:normal;font-variant-east-asian:normal;font-feature-settings:normal;font-variation-settings:normal;text-indent:0;text-align:start;text-decoration:none;text-decoration-line:none;text-decoration-style:solid;text-decoration-color:#000000;letter-spacing:normal;word-spacing:normal;text-transform:none;writing-mode:lr-tb;direction:ltr;text-orientation:mixed;dominant-baseline:auto;baseline-shift:baseline;text-anchor:start;white-space:normal;shape-padding:0;shape-margin:0;inline-size:0;clip-rule:nonzero;display:inline;overflow:visible;visibility:visible;isolation:auto;mix-blend-mode:normal;color-interpolation:sRGB;color-interpolation-filters:linearRGB;solid-color:#000000;solid-opacity:1;vector-effect:none;fill:#0000ff;fill-opacity:1;fill-rule:evenodd;stroke-width:0.020545;stroke-linecap:butt;stroke-linejoin:miter;stroke-miterlimit:4;stroke-dasharray:none;stroke-dashoffset:0;stroke-opacity:1.0;color-rendering:auto;image-rendering:auto;shape-rendering:auto;text-rendering:auto;enable-background:accumulate;stop-color:#000000;stop-opacity:1;stroke:none;" />
      <path
         sodipodi:nodetypes="cccsscccccccc"
         id="path911"
         d="m 67.626953,-107.85156 v 0.0156 0.3418 c 28.991278,28.44717 60.996367,4.85532 91.118857,17.143833 17.58127,7.172307 23.50055,57.496575 36.00495,57.586392 28.94759,0.207924 47.64054,-20.478674 53.29026,-74.730225 v -0.35742 z m 0.03125,0.0312 H 248.00781 v 0.29492 H 67.658203 Z"
         style="color:#000000;font-style:normal;font-variant:normal;font-weight:normal;font-stretch:normal;font-size:medium;line-height:normal;font-family:sans-serif;font-variant-ligatures:normal;font-variant-position:normal;font-variant-caps:normal;font-variant-numeric:normal;font-variant-alternates:normal;font-variant-east-asian:normal;font-feature-settings:normal;font-variation-settings:normal;text-indent:0;text-align:start;text-decoration:none;text-decoration-line:none;text-decoration-style:solid;text-decoration-color:#000000;letter-spacing:normal;word-spacing:normal;text-transform:none;writing-mode:lr-tb;direction:ltr;text-orientation:mixed;dominant-baseline:auto;baseline-shift:baseline;text-anchor:start;white-space:normal;shape-padding:0;shape-margin:0;inline-size:0;clip-rule:nonzero;display:inline;overflow:visible;visibility:visible;isolation:auto;mix-blend-mode:normal;color-interpolation:sRGB;color-interpolation-filters:linearRGB;solid-color:#000000;solid-opacity:1;vector-effect:none;fill-opacity:1;fill-rule:evenodd;stroke:#056676;stroke-width:0.52916667;stroke-linecap:butt;stroke-linejoin:miter;stroke-miterlimit:4;stroke-dasharray:none;stroke-dashoffset:0;stroke-opacity:1;color-rendering:auto;image-rendering:auto;shape-rendering:auto;text-rendering:auto;enable-background:accumulate;stop-color:#000000;stop-opacity:1;fill:#a3d2ca;opacity:0.5" />
    </g>
    <rect
       style="fill:none;fill-opacity:1;fill-rule:evenodd;stroke:#056676;stroke-width:0.979043;stroke-miterlimit:4;stroke-dasharray:none;stroke-opacity:1"
       id="rect850-8"
       width="202.14915"
       height="102.2653"
       x="58.066174"
       y="115.52399"
       rx="8.1452036"
       ry="7.0527782" />
    <rect
       ry="2.5910177"
       rx="2.7708983"
       y="132.17891"
       x="96.141609"
       height="13.834312"
       width="124.87746"
       id="rect850-8-3"
       style="opacity:0.5;fill:#a3d2ca;fill-opacity:1;fill-rule:evenodd;stroke:#056676;stroke-width:0.283024;stroke-miterlimit:4;stroke-dasharray:none;stroke-opacity:1" />
    <rect
       style="opacity:0.5;fill:#a3d2ca;fill-opacity:1;fill-rule:evenodd;stroke:#056676;stroke-width:0.2088;stroke-miterlimit:4;stroke-dasharray:none;stroke-opacity:1"
       id="rect850-8-3-4"
       width="67.972267"
       height="13.833399"
       x="124.34362"
       y="156.52939"
       rx="1.5082325"
       ry="2.5908465" />
    <rect
       ry="2.5910177"
       rx="3.7120833"
       y="180.86607"
       x="75.650543"
       height="13.834312"
       width="167.29433"
       id="rect850-8-3-4-9"
       style="opacity:0.5;fill:#a3d2ca;fill-opacity:1;fill-rule:evenodd;stroke:#056676;stroke-width:0.327583;stroke-miterlimit:4;stroke-dasharray:none;stroke-opacity:1" />
  </g>
  <g
     inkscape:label="human"
     id="layer2"
     inkscape:groupmode="layer">
    <g
       transform="matrix(0.23706151,0,0,0.22545683,-11.964109,138.04005)"
       id="react-group-21"
       stroke="none"
       stroke-width="1"
       fill="#FFFFFF00"
       fill-rule="evenodd">
      <g
         id="react-group-22">
        <rect
           id="react-rect-24"
           x="0"
           y="0"
           width="1024"
           height="768"
           style="opacity:0" />
        <path
           d="m 448.99519,335.47311 c -9.10066,6.59703 -7.65175,19.57753 -4.91256,29.00877 4.03422,13.88669 12.0695,26.74211 21.23527,37.8229 16.26116,19.65776 43.86617,41.73086 69.31204,24.47309 22.6605,-15.36987 36.95426,-46.38335 41.88813,-72.50599 1.52466,-8.07314 3.55598,-20.10142 -3.60925,-26.17102 -10.59219,-8.97107 -29.27648,-7.33921 -42.06333,-6.18405 -8.42119,0.75988 -16.54644,3.34158 -24.86819,2.12978 -19.33535,-2.81769 -40.85472,-0.26548 -56.98211,11.42652"
           id="react-path-25"
           fill="#7fbbca"
           style="fill:#a3d2ca;fill-opacity:1" />
        <g
           id="react-group-23"
           transform="translate(89.99984,82)"
           fill="#2d3d8b">
          <path
             d="m 751.02293,356.34324 c -18.43509,23.38515 -49.77687,27.08004 -77.61319,26.85058 -16.71554,-0.13838 -33.46307,-1.39681 -49.85034,-4.80311 -8.83477,-1.83679 -17.61028,-4.26969 -26.1464,-7.19225 -5.63861,-1.93141 -14.03252,-2.89653 -16.4323,-8.93797 -6.32951,-15.94099 -1.67215,-35.93168 0.93384,-52.11157 1.3261,-8.22952 2.32157,-16.50871 3.61093,-24.74531 0.82482,-5.26912 1.21945,-11.10003 3.42844,-16.02969 2.58584,-5.77533 5.85192,-4.62216 11.32105,-3.02664 7.53474,2.1999 15.27093,3.11416 23.01779,4.2969 18.90675,2.88707 35.40186,8.70852 52.58432,16.96051 16.99048,8.15855 33.47137,16.21183 48.62616,27.55668 7.67813,5.74931 14.29442,11.98945 20.45802,19.31653 4.76165,5.6606 11.86857,14.49804 6.06168,21.86534 m -80.58418,103.86832 c -0.14814,2.51806 -29.04036,-5.08342 -32.84209,-5.93618 -24.9471,-5.59554 -50.38837,-11.96815 -73.93945,-22.07823 -21.98321,-9.4359 -41.35214,-20.23196 -58.65074,-36.99732 -8.06328,-7.81437 -15.31596,-16.04388 -22.25578,-24.80799 -3.47821,-4.39271 -8.23037,-3.88295 -12.10914,-7.59912 -3.48887,-3.34479 -6.16478,-5.95628 -5.0745,-10.95691 8.71862,2.29688 24.81673,16.73697 33.85414,9.44537 5.15154,-4.15615 -1.9933,-8.498 -5.29137,-10.90606 -6.20034,-4.52871 -11.50238,-10.11598 -16.43112,-15.98001 8.46265,1.64046 16.33987,4.81021 23.70513,9.22183 3.272,1.9598 14.48759,9.06689 17.09832,2.29215 1.60697,-4.17152 -5.99768,-9.41225 -8.36903,-11.71978 -5.82229,-5.66533 -12.10795,-12.27922 -15.19863,-19.89607 7.64257,-1.77293 14.84666,4.13368 20.05153,8.94507 5.77726,5.34126 12.85929,10.94745 17.7039,17.10244 2.49933,3.17447 3.04328,6.92377 4.9951,10.3478 2.19714,3.85219 5.7109,7.1544 9.06941,10.00481 6.47053,5.49265 14.03845,9.53644 21.80664,12.88123 17.7513,7.64287 36.77774,13.05155 55.69871,16.84578 9.28272,1.86164 18.33672,2.71912 27.7581,3.03492 7.3226,0.24601 10.56261,2.43526 13.35821,9.18162 7.56554,18.2556 6.19204,38.33855 5.06266,57.57465 M 453.1569,321.11174 c -4.2331,3.961 -9.73424,6.44594 -14.15932,10.25437 -3.89417,3.3507 -8.38562,6.92613 -12.73131,9.63579 -4.63958,2.8918 -8.10594,0.86458 -12.28334,-1.75282 -4.90386,-3.0704 -10.54128,-4.31464 -15.59208,-7.06215 -17.46333,-9.50451 -38.82793,-32.79386 -35.56777,-54.17782 1.3818,-9.06335 6.0676,-17.98122 14.57646,-22.09361 7.72791,-3.73391 18.96127,-5.80607 27.22838,-2.68482 4.66328,1.7611 8.00047,5.64877 10.98805,9.47021 3.48413,4.45539 4.81853,3.75284 8.36666,-0.54406 6.34965,-7.68664 16.81982,-14.43063 27.1703,-14.26859 5.14443,0.0816 10.25449,1.16618 14.88815,3.30103 0.62809,0.28977 0.97769,1.16618 1.60815,1.46305 0.77386,0.36429 2.04545,-0.39385 2.58347,-0.0532 1.35692,0.85867 2.71146,3.54231 3.49361,4.90364 3.14046,5.46308 8.79447,16.17754 3.09661,20.77722 -0.004,0.002 0.25361,6.22358 0.1754,6.93322 -0.40175,3.71145 -1.68519,6.77593 -3.33837,10.1704 -4.9643,10.19759 -12.29282,18.04862 -20.50305,25.72816 m 8.44132,86.27978 c -4.01031,1.24661 -8.32992,-11.32119 -4.48316,-13.32712 3.66782,-1.91368 8.11424,12.19997 4.48316,13.32712 M 398.61009,392.3648 c -1.38891,4.74752 -1.97553,10.13491 -5.37196,13.99892 -3.10965,-3.69015 -3.41659,-10.49919 -0.40056,-14.29224 1.72192,-2.16442 7.29179,-4.89418 5.77252,0.29332 m 128.33575,-83.181 c -0.0225,0.12064 4.82564,2.43881 2.46022,4.97461 -3.23171,3.46306 -2.7873,-3.27738 -2.46022,-4.97461 m 20.03494,-38.69219 c -0.0557,4.80074 -10.21775,3.64166 -10.14546,-1.18629 0.0889,-5.9421 10.20472,-3.90187 10.14546,1.18629 m -12.13047,-40.11858 c 1.00614,-4.39507 18.68159,-10.50866 18.20045,-2.84923 -0.24176,3.84036 -20.33359,12.19288 -18.20045,2.84923 m -181.20449,149.0443 c -1.98145,2.38204 -4.79601,3.32114 -7.17091,5.14966 -2.49104,1.91604 -4.27102,4.40216 -6.44564,6.65173 -5.97399,6.17628 -13.16505,11.25142 -19.6095,16.92503 -11.84842,10.42941 -23.19792,21.6418 -36.33452,30.48752 -23.47523,15.80497 -50.69768,24.44962 -77.72222,32.01916 -2.23861,0.62686 -8.68781,3.15792 -10.90272,1.27263 -2.38912,-2.03313 -1.17442,-9.18753 -1.06421,-11.89246 0.44796,-11.09056 1.74089,-22.31241 1.60105,-33.38642 -0.0581,-4.54882 -1.3901,-11.01486 0.98361,-15.17693 2.64984,-4.64817 10.04829,-6.00832 14.62506,-7.7576 13.91046,-5.31642 27.31014,-14.28515 39.59823,-22.59154 15.10501,-10.21178 30.36053,-20.5927 45.90521,-30.12559 15.22945,-9.33893 32.02795,-15.59208 49.01605,-20.92624 0.78689,1.65347 -7.31905,6.9758 -8.24578,7.72211 -4.44404,3.57779 -9.27916,7.28687 -12.57842,12.00956 -2.33579,3.3436 -4.73084,10.9096 1.71836,11.10357 3.12624,0.0946 7.74805,-2.92965 10.58275,-3.90778 4.68225,-1.61562 9.50671,-2.74987 14.40464,-3.4879 -4.21059,4.63634 -18.48249,12.96403 -15.88598,20.67431 2.51947,7.48202 17.09239,-1.24897 22.10883,-1.24897 -0.82245,2.60913 -2.88922,4.44947 -4.58389,6.48615 m -172.16471,20.88248 c -9.33249,3.28211 -18.89845,5.14847 -28.53077,7.26676 -9.18081,2.02012 -17.66716,3.54231 -27.07076,2.35957 -12.98372,-1.63218 -27.351619,-7.01011 -28.997693,-21.76362 -1.951825,-17.47973 10.393143,-33.54254 20.993673,-46.08314 12.90077,-15.25855 27.38717,-28.8991 43.0871,-41.25046 15.68215,-12.33954 32.60863,-23.2184 50.34215,-32.40238 13.49094,-6.98645 28.7275,-11.22894 42.99229,-16.47204 2.71383,-0.99705 10.22012,-4.50269 12.75856,-1.59788 2.05137,2.34892 -0.74067,6.26262 -1.6757,8.44359 -1.82384,4.25195 -2.07507,8.5323 -2.54555,13.09767 -2.10351,20.3881 -4.63484,40.77027 -5.79977,61.24589 -0.32472,5.70672 -0.89592,11.67602 -0.56292,17.38629 0.18369,3.16265 1.82977,7.19107 0.73357,10.27921 -2.10707,5.93617 -11.75599,9.86524 -16.8696,12.51694 -9.15474,4.74635 -18.84868,8.28865 -28.09704,12.8292 -10.15731,4.98643 -20.04679,10.37619 -30.75754,14.1444 M 310.91306,267.82452 c 2.56214,-0.35127 6.39943,-1.04909 8.68308,0.6103 2.9781,2.16442 2.19713,5.17567 -0.55344,6.74517 -2.17225,1.2407 -7.25623,1.58014 -9.40241,0.45417 -3.65597,-1.91722 -3.03736,-7.2159 1.27277,-7.80964 m 14.18777,47.2103 c -2.07034,3.44769 -9.63588,5.70909 -8.97698,-0.72502 0.56529,-5.50921 12.78938,-5.62394 8.97698,0.72502 m -2.80864,-97.12907 c 3.3277,1.28919 9.36686,2.39269 10.35404,6.67303 0.91843,3.98465 -2.85723,3.7209 -5.58173,2.6245 -2.24098,-0.90007 -12.22409,-9.36613 -4.77231,-9.29753 m 521.39443,151.98933 c -1.94353,-7.56363 -0.46337,-15.93743 -1.53586,-23.68439 -1.0405,-7.50922 -2.91293,-14.41051 -5.5995,-21.48804 -5.9491,-15.66777 -12.76449,-29.77196 -22.40747,-43.52251 -18.16134,-25.89493 -39.23204,-48.70409 -64.67568,-67.61849 -25.11894,-18.67193 -52.93393,-33.8465 -82.39854,-44.48171 -31.24461,-11.27862 -62.69542,-15.20414 -95.64417,-17.36619 -9.83971,-0.64459 -19.66994,-1.40982 -29.45395,-2.65289 -7.15076,-0.90834 -16.1147,-2.02721 -23.18488,0.16322 -4.44168,1.37671 -6.92323,5.25019 -2.08455,7.7919 3.4308,1.8025 7.92225,2.01776 11.71094,2.49677 -4.57677,14.54062 -12.02381,29.13091 -23.82601,39.14281 -11.52133,9.77536 -26.93921,13.12607 -41.48013,15.60509 -7.88551,1.3436 -16.71435,2.38322 -24.72193,1.80368 -5.06266,-0.36547 -9.01252,-2.70966 -11.0556,2.50505 -1.41735,3.62273 -2.08811,7.59793 -3.95698,2.12775 -2.21017,-6.46723 -3.29452,-6.42583 -10.17035,-8.26263 -14.06096,-3.75639 -30.1804,-7.18397 -42.44715,-15.30704 -12.72656,-8.42821 -17.15283,-22.06285 -24.25738,-34.75839 -1.75748,-3.13781 -7.05715,-9.48913 -4.34924,-13.08467 2.47681,-3.28802 10.53061,-2.9604 14.21857,-3.30339 3.8918,-0.36192 7.8073,-0.3773 11.71214,-0.52869 2.26231,-0.0875 6.81302,0.83975 5.90288,-2.53934 -1.37351,-5.09289 -16.08508,-4.44001 -19.73868,-4.52281 -6.79405,-0.15257 -13.68173,0.005 -20.44142,0.75223 -33.51759,3.70671 -67.33619,10.56069 -99.77061,19.70092 -62.92769,17.73165 -123.87393,50.40606 -169.798107,97.47797 -44.082566,45.18426 -58.0487206,120.37584 -30.948336,178.06877 14.083478,29.98367 44.647848,42.30074 74.276003,52.24877 15.62764,5.24664 32.17608,9.35076 48.78852,8.3608 7.97202,-0.47546 15.53638,-2.62214 23.31168,-4.23894 3.39051,-0.7061 7.24913,-1.83089 10.73208,-1.54703 2.6368,0.21526 5.16931,2.63515 7.64257,1.34951 1.7551,-0.91308 2.51829,-3.53285 4.66329,-4.64936 2.57517,-1.33886 5.69786,-1.8226 8.47924,-2.49795 7.73145,-1.87819 15.21759,-4.92375 22.77484,-7.42051 7.81441,-2.58311 15.18916,-5.90898 22.68715,-9.27151 3.78633,-1.69842 12.54762,-8.60326 15.01495,-3.55532 1.12464,2.30398 0.64587,6.74754 0.91962,9.16388 0.47996,4.22593 1.04406,8.4424 1.6603,12.6506 1.3581,9.26441 2.98403,18.48979 4.65025,27.70453 3.00773,16.62579 6.88294,32.54193 13.36295,48.18132 5.17405,12.48738 9.71646,26.64124 19.3239,36.57509 4.19399,4.33592 9.91674,6.28745 15.9322,4.92493 6.84264,-1.55057 10.24856,-7.76588 14.40226,-12.79134 9.13933,-11.05863 24.22775,-19.53179 38.16073,-22.58208 17.06158,-3.7351 33.68112,1.72798 49.96648,6.37143 17.22631,4.91192 34.7631,9.59203 51.67181,15.49627 15.75562,5.50329 32.76862,13.62991 49.85627,12.92263 14.90118,-0.61621 28.81993,-12.74404 39.56623,-21.98834 10.7937,-9.28452 24.28938,-22.87895 39.80917,-21.78491 7.70657,0.54288 14.72935,4.26023 22.23564,5.77178 8.24104,1.65938 17.00943,1.89475 25.38913,2.51332 10.40262,0.7676 33.6752,-1.94443 37.52315,-14.45901 0.57121,-1.8569 0.57476,-5.67952 -1.87717,-6.42228 -2.2552,-0.68244 -3.4071,1.95388 -5.54379,1.83325 -4.34687,-0.24483 -7.74331,-7.82384 -10.13124,-10.75822 -9.63707,-11.84515 -22.85662,-20.68023 -33.67047,-31.38167 -12.21105,-12.0817 -22.63619,-26.72048 -31.83714,-41.15821 4.15963,-1.08102 8.64752,0.71438 12.67323,1.56714 4.89201,1.03608 9.6584,2.2886 14.4793,3.61564 5.31271,1.46305 10.70126,2.46838 16.09337,3.5837 4.02334,0.83029 9.36331,1.08103 12.99439,3.09878 3.17008,1.76229 4.93941,3.65467 8.87505,4.16562 4.00202,0.51922 8.11069,0.0816 12.13166,0.0544 10.87428,-0.0733 21.72605,-0.27557 32.54937,-1.4252 38.24369,-4.06272 78.78287,-20.23906 101.77932,-52.34221 6.25485,-8.73218 11.2938,-18.40581 14.47811,-28.67083 2.48511,-8.01425 6.77036,-19.30824 4.60759,-27.72345"
             id="react-path-26"
             style="fill:#056676;fill-opacity:1" />
          <path
             d="m 484.98903,0.00833256 c 10.05035,0.14225539 19.47055,3.12250564 28.83508,6.51055474 8.23572,2.9790648 17.01512,5.7352627 23.67429,11.6815377 11.9775,10.69642 15.09743,28.407215 17.05775,43.559784 2.44478,18.908111 -5.69144,34.771958 -12.53895,51.878171 -6.4045,15.99898 -18.15932,28.95964 -32.1315,38.83572 -7.32011,5.17335 -15.41013,8.29586 -23.87446,11.03427 -8.59817,2.78109 -16.92509,6.50581 -26.12379,6.49163 -13.96981,-0.0202 -31.85433,-6.65522 -37.80518,-20.41843 -2.70892,-6.26635 -0.0711,-7.39135 5.35031,-3.98552 7.86498,4.941 15.44686,10.27321 24.63727,12.46513 17.82412,4.25225 39.17207,-2.33536 54.80134,-11.02717 15.62335,-8.68943 26.11195,-21.74255 33.12173,-37.99641 7.07255,-16.397304 9.82056,-32.555144 7.09269,-50.232747 -2.31093,-14.980677 -6.9091,-28.664459 -20.40866,-36.796725 -29.14305,-17.5531292 -68.40751,-16.1388736 -94.32402,6.672963 -3.55464,3.127247 -7.06781,6.170327 -10.73024,9.156504 -2.3287,1.897924 -5.07078,4.175196 -4.73201,7.457739 0.28901,2.810729 6.2825,13.648219 -0.93456,10.319442 -5.85017,-2.699295 -9.02932,-7.975785 -16.11609,-8.628974 -7.5428,-0.695866 -16.54014,5.09867 -18.79658,12.391629 -2.15221,6.958659 1.68552,16.479101 7.69678,20.47055 3.72283,2.471687 7.81878,2.089969 12.0462,1.99039 2.09772,-0.04979 7.93841,-0.73143 9.32663,1.486569 2.45662,3.922692 -6.21025,8.045727 -9.00682,8.913485 -6.80604,2.111307 -14.84987,-0.37342 -18.76223,-6.448911 -3.97749,-6.176254 -6.69944,-13.324587 -7.24785,-20.682747 -0.52355,-7.04994 1.07669,-14.187604 5.23542,-19.976212 4.42404,-6.156102 13.44152,-13.057859 21.52563,-10.919286 3.50844,0.928216 6.32751,4.553357 9.7708,5.24211 2.17353,0.433879 1.25911,0.74447 3.05953,-0.866572 1.14302,-1.021868 2.22327,-2.907937 3.27865,-4.119479 6.06692,-6.965772 12.06634,-14.399801 19.49187,-19.975026 13.31478,-9.9969976 31.01216,-14.71869082 47.53097,-14.48396944 z M 448.16901,138.11253 c 1.57491,-3.6915 4.46759,2.89372 5.32276,3.99489 1.69314,2.17815 5.67516,3.8728 5.50298,7.08564 -0.28353,5.30395 -7.51293,4.32004 -9.9235,1.55323 -2.74345,-3.14998 -2.45648,-8.9882 -0.90224,-12.63376 z M 499.53021,113 c 3.90028,6.07781 -0.85296,12.63845 -3.93636,18.01778 -2.94866,5.14332 -5.6868,10.95756 -9.11909,15.79297 -5.69762,8.02827 -18.0938,-0.65654 -18.46193,-8.90765 -0.28152,-6.31623 4.19261,-3.56666 7.06428,-1.20766 2.95588,2.42969 4.35623,3.03471 7.45527,0.38099 6.23298,-5.341 9.03367,-14.27142 13.34298,-21.03333 0.85417,-1.34064 2.40248,-2.14694 3.65485,-3.0431 z m 11.11788,1.95433 c 1.00616,2.9392 -1.10396,10.72742 4.76103,9.94872 3.24118,-0.42993 3.93277,-5.08033 5.63642,-7.11004 5.7295,-6.82302 3.97283,6.08186 2.47536,9.31171 -3.30008,7.11851 -12.53585,12.02324 -17.11662,2.99249 -1.70366,-3.35943 -1.69659,-7.5993 -0.83062,-11.21063 0.47127,-1.96673 3.21879,-9.36015 5.07443,-3.93225 z m -52.30075,-13.92062 c -0.51939,3.42948 -3.74309,10.26205 0.19258,12.71544 3.46297,2.15961 9.4937,-2.53014 12.16066,-4.48829 2.77085,-2.03491 9.05018,-7.87221 9.29645,-0.60796 0.12605,3.70288 -3.58085,8.14561 -6.22564,10.27883 -5.64323,4.54945 -17.36854,8.63005 -21.52714,0.0672 -2.26546,-4.66457 -1.02593,-11.30528 0.47154,-16.00582 1.21385,-3.809594 6.88508,-10.242856 5.63155,-1.95936 z m 74.01272,-18.775819 c 2.29629,2.666739 7.73944,8.641467 4.7798,12.439264 -3.46004,4.439045 -9.08231,-3.705514 -11.29886,-5.972361 -1.99698,-2.042056 -6.1978,-7.857063 -4.40653,-10.941442 2.96542,-5.103955 8.90897,2.133155 10.92559,4.474539 z M 496.2653,70.774961 c 7.50618,4.89016 -2.36288,8.41136 -6.63818,8.849144 -5.17505,0.527706 -11.79088,0.877933 -16.5437,-1.661211 -6.73697,-3.599291 -4.49171,-9.03609 2.03827,-10.337608 6.69581,-1.333465 15.31815,-0.646027 21.14361,3.149675 z M 398.68029,55.207532 c 5.52003,1.074146 11.82489,2.471958 13.70512,8.490022 1.94115,6.219614 -0.84814,8.283729 -6.48643,6.883545 -5.21662,-1.295852 -13.00869,-2.600002 -15.95804,-7.695676 -3.52394,-6.088013 3.62069,-8.672603 8.73935,-7.677891 z"
             id="react-path-27"
             style="fill:#056676;fill-opacity:1" />
          <path
             d="m 94.94653,188.85026 c -1.852444,5.98235 -11.228444,9.95015 -15.904,13.58651 -16.35437,12.72313 -32.335407,25.96995 -47.120593,40.49061 -7.674074,7.53693 -13.482666,16.65318 -20.137481,25.0358 -1.623704,2.04523 -4.5001481,6.62754 -7.6847407,6.19703 -3.49392591,-0.47062 -4.20029628,-6.48836 -4.08888888,-9.11626 0.38162963,-8.96175 8.56651848,-17.61682 14.40355558,-23.7879 6.565926,-6.93892 13.585778,-13.70092 20.754963,-20.01944 7.893333,-6.95543 16.458667,-12.93425 25.187556,-18.78805 8.571259,-5.74764 16.789333,-12.38815 25.703111,-17.59441 4.199111,-2.45215 11.171555,-3.38512 8.886518,3.99611 z m 571.67589,-56.81414 c 6.82647,0.21523 13.48776,2.45431 19.92561,4.53286 14.16162,4.57328 27.64938,10.91714 40.94936,17.54757 23.31746,11.62228 45.75666,25.68459 66.32523,41.67325 4.29982,3.34138 8.7078,6.04896 13.38318,8.78152 2.99252,1.75035 7.25907,3.88598 8.41187,7.45328 2.92835,9.06809 -11.85245,-0.0333 -13.95007,-1.33536 l -2.9505,-1.82959 c -43.76362,-27.12342 -87.47659,-53.47666 -136.97923,-69.03135 -2.63718,-0.8288 -3.45721,-3.18084 -2.07385,-5.51267 1.49983,-2.52684 4.42224,-2.35918 6.9584,-2.27951 z M 92.954846,151.01468 c -0.316426,2.76101 -3.443805,3.38911 -5.552912,4.27535 -7.870193,3.30583 -15.936666,6.12513 -23.785447,9.48569 -14.567471,6.23696 -27.945372,15.28846 -43.150453,20.02179 -3.474733,1.08371 -3.987438,-2.42317 -3.057194,-4.80946 1.036115,-2.66347 4.14803,-4.53348 6.398696,-6.07399 6.492671,-4.44783 13.856108,-7.64542 21.06609,-10.73475 7.148125,-3.06554 14.507993,-5.38403 21.836932,-7.95352 6.811476,-2.38868 14.717357,-6.83413 22.032021,-7.16245 l 0.319717,-0.0155 c 2.327957,-0.11766 4.261213,-0.27493 3.89255,2.96682 z M 679.04742,109.06957 c -6.95982,-1.95767 -0.38442,-6.3636 3.75161,-6.05407 4.61417,0.34575 9.0741,2.52419 13.44979,3.83826 13.37861,4.01697 25.77956,8.41005 38.27781,14.64517 1.86394,0.93095 10.07548,5.34389 4.64383,7.29806 -3.76466,1.35379 -12.55638,-4.45499 -15.78832,-5.84849 -14.2032,-6.12416 -29.46473,-9.69726 -44.33472,-13.87893 z"
             id="react-path-28"
             style="fill:#056676;fill-opacity:1" />
          <path
             d="m 401.60793,123.33129 c 0.86993,-2.55254 11.62998,-30.454384 7.41846,-31.295777 -4.46091,-0.892206 -10.42402,15.296317 -11.7178,18.221107 -4.77938,10.8022 -7.60931,22.39261 -9.82688,33.97948 -1.54435,8.06768 -2.90135,16.3327 -2.36042,24.58118 0.41565,6.33881 3.03365,7.29837 7.34821,11.18272 0,-19.25394 2.92594,-38.44524 9.13843,-56.66871"
             id="react-path-29"
             style="fill:#056676;fill-opacity:1" />
        </g>
      </g>
    </g>
  </g>
</svg>
